{
  "version": "0.6.2b",
  "modules": [
    {
      "plugin": "dBiz",
      "version": "0.6.0",
      "model": "Chord",
      "params": [
        {
          "paramId": 3,
          "value": 0.0
        },
        {
          "paramId": 4,
          "value": 0.0
        },
        {
          "paramId": 5,
          "value": 0.0
        },
        {
          "paramId": 0,
          "value": 0.282500327
        },
        {
          "paramId": 1,
          "value": 0.145500019
        },
        {
          "paramId": 2,
          "value": 0.101999953
        },
        {
          "paramId": 6,
          "value": 1.0
        },
        {
          "paramId": 7,
          "value": 1.0
        },
        {
          "paramId": 8,
          "value": 0.0
        },
        {
          "paramId": 15,
          "value": 0.0
        },
        {
          "paramId": 16,
          "value": 0.0
        },
        {
          "paramId": 9,
          "value": 1.0
        },
        {
          "paramId": 10,
          "value": 1.0
        },
        {
          "paramId": 11,
          "value": 0.0
        },
        {
          "paramId": 12,
          "value": 0.0
        },
        {
          "paramId": 13,
          "value": 0.0
        },
        {
          "paramId": 14,
          "value": 0.0
        }
      ],
      "pos": [
        59,
        1
      ]
    },
    {
      "plugin": "Core",
      "version": "0.6.2b",
      "model": "QuadMIDIToCVInterface",
      "params": [],
      "data": {
        "midi": {
          "driver": -12512,
          "deviceName": "Port 1",
          "channel": -1
        },
        "polyMode": 2
      },
      "pos": [
        5,
        0
      ]
    },
    {
      "plugin": "Gratrix",
      "version": "0.6.0",
      "model": "VCO-F1",
      "params": [
        {
          "paramId": 0,
          "value": 1.0
        },
        {
          "paramId": 1,
          "value": 1.0
        },
        {
          "paramId": 2,
          "value": 0.0
        },
        {
          "paramId": 3,
          "value": 0.0
        },
        {
          "paramId": 5,
          "value": 0.5
        },
        {
          "paramId": 4,
          "value": 0.0
        },
        {
          "paramId": 6,
          "value": 0.0
        }
      ],
      "pos": [
        16,
        0
      ]
    },
    {
      "plugin": "Gratrix",
      "version": "0.6.0",
      "model": "VCA-F1",
      "params": [
        {
          "paramId": 0,
          "value": 0.5
        },
        {
          "paramId": 1,
          "value": 0.5
        },
        {
          "paramId": 2,
          "value": 0.5
        }
      ],
      "pos": [
        42,
        0
      ]
    },
    {
      "plugin": "Gratrix",
      "version": "0.6.0",
      "model": "ADSR-F1",
      "params": [
        {
          "paramId": 0,
          "value": 0.5
        },
        {
          "paramId": 1,
          "value": 0.5
        },
        {
          "paramId": 2,
          "value": 0.5
        },
        {
          "paramId": 3,
          "value": 0.5
        }
      ],
      "pos": [
        36,
        1
      ]
    },
    {
      "plugin": "Core",
      "version": "0.6.2b",
      "model": "AudioInterface",
      "params": [],
      "data": {
        "audio": {
          "driver": -12512,
          "deviceName": "1",
          "offset": 0,
          "maxChannels": 8,
          "sampleRate": 44100,
          "blockSize": 512
        }
      },
      "pos": [
        80,
        0
      ]
    },
    {
      "plugin": "AS",
      "version": "0.6.9",
      "model": "Mixer8ch",
      "params": [
        {
          "paramId": 9,
          "value": 0.0
        },
        {
          "paramId": 10,
          "value": 0.0
        },
        {
          "paramId": 11,
          "value": 0.0
        },
        {
          "paramId": 12,
          "value": 0.0
        },
        {
          "paramId": 13,
          "value": 0.0
        },
        {
          "paramId": 14,
          "value": 0.0
        },
        {
          "paramId": 15,
          "value": 0.0
        },
        {
          "paramId": 16,
          "value": 0.0
        },
        {
          "paramId": 1,
          "value": 0.800000012
        },
        {
          "paramId": 2,
          "value": 0.800000012
        },
        {
          "paramId": 3,
          "value": 0.800000012
        },
        {
          "paramId": 4,
          "value": 0.800000012
        },
        {
          "paramId": 5,
          "value": 0.800000012
        },
        {
          "paramId": 6,
          "value": 0.800000012
        },
        {
          "paramId": 7,
          "value": 0.800000012
        },
        {
          "paramId": 8,
          "value": 0.800000012
        },
        {
          "paramId": 17,
          "value": 0.0
        },
        {
          "paramId": 18,
          "value": 0.0
        },
        {
          "paramId": 19,
          "value": 0.0
        },
        {
          "paramId": 20,
          "value": 0.0
        },
        {
          "paramId": 21,
          "value": 0.0
        },
        {
          "paramId": 22,
          "value": 0.0
        },
        {
          "paramId": 23,
          "value": 0.0
        },
        {
          "paramId": 24,
          "value": 0.0
        },
        {
          "paramId": 0,
          "value": 0.800000012
        },
        {
          "paramId": 25,
          "value": 0.0
        }
      ],
      "data": {
        "as_MixerMutes": [
          0,
          0,
          0,
          0,
          0,
          0,
          0,
          0,
          0
        ]
      },
      "pos": [
        54,
        0
      ]
    },
    {
      "plugin": "dBiz",
      "version": "0.6.0",
      "model": "Bene",
      "params": [
        {
          "paramId": 2,
          "value": 1.0
        },
        {
          "paramId": 6,
          "value": 1.0
        },
        {
          "paramId": 10,
          "value": 1.0
        },
        {
          "paramId": 14,
          "value": 1.0
        },
        {
          "paramId": 3,
          "value": 1.0
        },
        {
          "paramId": 7,
          "value": 1.0
        },
        {
          "paramId": 11,
          "value": 1.0
        },
        {
          "paramId": 15,
          "value": 1.0
        },
        {
          "paramId": 4,
          "value": 1.0
        },
        {
          "paramId": 8,
          "value": 1.0
        },
        {
          "paramId": 12,
          "value": 1.0
        },
        {
          "paramId": 16,
          "value": 1.0
        },
        {
          "paramId": 5,
          "value": 1.0
        },
        {
          "paramId": 9,
          "value": 1.0
        },
        {
          "paramId": 13,
          "value": 1.0
        },
        {
          "paramId": 17,
          "value": 1.0
        },
        {
          "paramId": 0,
          "value": 0.566100061
        },
        {
          "paramId": 1,
          "value": 0.0
        }
      ],
      "pos": [
        47,
        2
      ]
    },
    {
      "plugin": "dBiz",
      "version": "0.6.0",
      "model": "Bene2",
      "params": [
        {
          "paramId": 2,
          "value": 0.0
        },
        {
          "paramId": 3,
          "value": 0.0
        },
        {
          "paramId": 0,
          "value": 0.0
        },
        {
          "paramId": 1,
          "value": 0.0
        },
        {
          "paramId": 20,
          "value": 0.990999877
        },
        {
          "paramId": 4,
          "value": 0.0
        },
        {
          "paramId": 24,
          "value": 1.0
        },
        {
          "paramId": 8,
          "value": 0.0
        },
        {
          "paramId": 28,
          "value": 1.17999959
        },
        {
          "paramId": 12,
          "value": 0.0
        },
        {
          "paramId": 32,
          "value": 1.0
        },
        {
          "paramId": 16,
          "value": 0.0
        },
        {
          "paramId": 21,
          "value": 1.0
        },
        {
          "paramId": 5,
          "value": 0.0
        },
        {
          "paramId": 25,
          "value": 1.0
        },
        {
          "paramId": 9,
          "value": 0.0
        },
        {
          "paramId": 29,
          "value": 1.05100012
        },
        {
          "paramId": 13,
          "value": 0.0
        },
        {
          "paramId": 33,
          "value": 1.0
        },
        {
          "paramId": 17,
          "value": 0.0
        },
        {
          "paramId": 22,
          "value": 1.0
        },
        {
          "paramId": 6,
          "value": 0.0
        },
        {
          "paramId": 26,
          "value": 1.0
        },
        {
          "paramId": 10,
          "value": 0.0
        },
        {
          "paramId": 30,
          "value": 1.0
        },
        {
          "paramId": 14,
          "value": 0.0
        },
        {
          "paramId": 34,
          "value": 1.0
        },
        {
          "paramId": 18,
          "value": 0.0
        },
        {
          "paramId": 23,
          "value": 1.0
        },
        {
          "paramId": 7,
          "value": 0.0
        },
        {
          "paramId": 27,
          "value": 1.0
        },
        {
          "paramId": 11,
          "value": 0.0
        },
        {
          "paramId": 31,
          "value": 1.0
        },
        {
          "paramId": 15,
          "value": 0.0
        },
        {
          "paramId": 35,
          "value": 1.0
        },
        {
          "paramId": 19,
          "value": 0.0
        }
      ],
      "data": {
        "running Line": true,
        "running Column": true,
        "ignoreGateOnPitchOut": false,
        "gates": [
          1,
          0,
          1,
          0,
          0,
          1,
          0,
          1,
          0,
          0,
          0,
          0,
          0,
          0,
          0,
          0
        ],
        "gateMode": 0
      },
      "pos": [
        60,
        2
      ]
    },
    {
      "plugin": "dBiz",
      "version": "0.6.0",
      "model": "BenePads",
      "params": [
        {
          "paramId": 0,
          "value": 0.0
        },
        {
          "paramId": 4,
          "value": 0.0
        },
        {
          "paramId": 8,
          "value": 0.0
        },
        {
          "paramId": 12,
          "value": 0.0
        },
        {
          "paramId": 1,
          "value": 0.0
        },
        {
          "paramId": 5,
          "value": 0.0
        },
        {
          "paramId": 9,
          "value": 0.0
        },
        {
          "paramId": 13,
          "value": 0.0
        },
        {
          "paramId": 2,
          "value": 0.0
        },
        {
          "paramId": 6,
          "value": 0.0
        },
        {
          "paramId": 10,
          "value": 0.0
        },
        {
          "paramId": 14,
          "value": 0.0
        },
        {
          "paramId": 3,
          "value": 0.0
        },
        {
          "paramId": 7,
          "value": 0.0
        },
        {
          "paramId": 11,
          "value": 0.0
        },
        {
          "paramId": 15,
          "value": 0.0
        }
      ],
      "pos": [
        81,
        2
      ]
    }
  ],
  "wires": [
    {
      "color": "#c9b70e",
      "outputModuleId": 1,
      "outputId": 0,
      "inputModuleId": 2,
      "inputId": 0
    },
    {
      "color": "#c91847",
      "outputModuleId": 1,
      "outputId": 1,
      "inputModuleId": 2,
      "inputId": 4
    },
    {
      "color": "#0c8e15",
      "outputModuleId": 1,
      "outputId": 2,
      "inputModuleId": 2,
      "inputId": 8
    },
    {
      "color": "#0986ad",
      "outputModuleId": 1,
      "outputId": 3,
      "inputModuleId": 2,
      "inputId": 12
    },
    {
      "color": "#c9b70e",
      "outputModuleId": 2,
      "outputId": 3,
      "inputModuleId": 3,
      "inputId": 2
    },
    {
      "color": "#c91847",
      "outputModuleId": 2,
      "outputId": 7,
      "inputModuleId": 3,
      "inputId": 5
    },
    {
      "color": "#0c8e15",
      "outputModuleId": 2,
      "outputId": 11,
      "inputModuleId": 3,
      "inputId": 8
    },
    {
      "color": "#0986ad",
      "outputModuleId": 2,
      "outputId": 15,
      "inputModuleId": 3,
      "inputId": 11
    },
    {
      "color": "#c9b70e",
      "outputModuleId": 1,
      "outputId": 4,
      "inputModuleId": 4,
      "inputId": 4
    },
    {
      "color": "#c91847",
      "outputModuleId": 1,
      "outputId": 5,
      "inputModuleId": 4,
      "inputId": 6
    },
    {
      "color": "#0c8e15",
      "outputModuleId": 1,
      "outputId": 6,
      "inputModuleId": 4,
      "inputId": 8
    },
    {
      "color": "#0986ad",
      "outputModuleId": 1,
      "outputId": 7,
      "inputModuleId": 4,
      "inputId": 10
    },
    {
      "color": "#c9b70e",
      "outputModuleId": 4,
      "outputId": 0,
      "inputModuleId": 3,
      "inputId": 0
    },
    {
      "color": "#c91847",
      "outputModuleId": 4,
      "outputId": 2,
      "inputModuleId": 3,
      "inputId": 3
    },
    {
      "color": "#0c8e15",
      "outputModuleId": 4,
      "outputId": 4,
      "inputModuleId": 3,
      "inputId": 6
    },
    {
      "color": "#0986ad",
      "outputModuleId": 4,
      "outputId": 6,
      "inputModuleId": 3,
      "inputId": 9
    },
    {
      "color": "#c91847",
      "outputModuleId": 3,
      "outputId": 2,
      "inputModuleId": 6,
      "inputId": 1
    },
    {
      "color": "#0c8e15",
      "outputModuleId": 3,
      "outputId": 3,
      "inputModuleId": 6,
      "inputId": 4
    },
    {
      "color": "#0986ad",
      "outputModuleId": 3,
      "outputId": 4,
      "inputModuleId": 6,
      "inputId": 7
    },
    {
      "color": "#c9b70e",
      "outputModuleId": 3,
      "outputId": 5,
      "inputModuleId": 6,
      "inputId": 10
    },
    {
      "color": "#c91847",
      "outputModuleId": 6,
      "outputId": 0,
      "inputModuleId": 5,
      "inputId": 0
    },
    {
      "color": "#0c8e15",
      "outputModuleId": 6,
      "outputId": 1,
      "inputModuleId": 5,
      "inputId": 1
    }
  ]
}