{
  "version": "0.6.2b",
  "modules": [
    {
      "plugin": "AudibleInstruments",
      "version": "0.6.0",
      "model": "Rings",
      "params": [
        {
          "paramId": 0,
          "value": 0.0
        },
        {
          "paramId": 1,
          "value": 0.0
        },
        {
          "paramId": 2,
          "value": 30.0
        },
        {
          "paramId": 3,
          "value": 0.630498409
        },
        {
          "paramId": 4,
          "value": 0.699503183
        },
        {
          "paramId": 5,
          "value": 0.797000527
        },
        {
          "paramId": 6,
          "value": 0.230000868
        },
        {
          "paramId": 7,
          "value": -0.639000297
        },
        {
          "paramId": 8,
          "value": 0.0
        },
        {
          "paramId": 9,
          "value": 0.0
        },
        {
          "paramId": 10,
          "value": 0.468000054
        },
        {
          "paramId": 11,
          "value": 0.341999948
        }
      ],
      "data": {
        "polyphony": 1,
        "model": 1,
        "easterEgg": false
      },
      "pos": [
        44,
        1
      ]
    },
    {
      "plugin": "AS",
      "version": "0.6.9",
      "model": "Mixer8ch",
      "params": [
        {
          "paramId": 9,
          "value": 0.0
        },
        {
          "paramId": 10,
          "value": 0.0
        },
        {
          "paramId": 11,
          "value": 0.0
        },
        {
          "paramId": 12,
          "value": 0.0
        },
        {
          "paramId": 13,
          "value": 0.0
        },
        {
          "paramId": 14,
          "value": 0.0
        },
        {
          "paramId": 15,
          "value": 0.0
        },
        {
          "paramId": 16,
          "value": 0.0
        },
        {
          "paramId": 1,
          "value": 0.800000012
        },
        {
          "paramId": 2,
          "value": 0.800000012
        },
        {
          "paramId": 3,
          "value": 0.800000012
        },
        {
          "paramId": 4,
          "value": 0.800000012
        },
        {
          "paramId": 5,
          "value": 0.800000012
        },
        {
          "paramId": 6,
          "value": 0.800000012
        },
        {
          "paramId": 7,
          "value": 0.800000012
        },
        {
          "paramId": 8,
          "value": 0.800000012
        },
        {
          "paramId": 17,
          "value": 0.0
        },
        {
          "paramId": 18,
          "value": 0.0
        },
        {
          "paramId": 19,
          "value": 0.0
        },
        {
          "paramId": 20,
          "value": 0.0
        },
        {
          "paramId": 21,
          "value": 0.0
        },
        {
          "paramId": 22,
          "value": 0.0
        },
        {
          "paramId": 23,
          "value": 0.0
        },
        {
          "paramId": 24,
          "value": 0.0
        },
        {
          "paramId": 0,
          "value": 0.800000012
        },
        {
          "paramId": 25,
          "value": 0.0
        }
      ],
      "data": {
        "as_MixerMutes": [
          0,
          0,
          0,
          0,
          0,
          0,
          0,
          0,
          0
        ]
      },
      "pos": [
        84,
        0
      ]
    },
    {
      "plugin": "Core",
      "version": "0.6.2b",
      "model": "AudioInterface",
      "params": [],
      "data": {
        "audio": {
          "driver": 5,
          "deviceName": "Apple Inc.: Built-in Output",
          "offset": 0,
          "maxChannels": 8,
          "sampleRate": 44100,
          "blockSize": 256
        }
      },
      "pos": [
        116,
        0
      ]
    },
    {
      "plugin": "AudibleInstruments",
      "version": "0.6.0",
      "model": "Tides",
      "params": [
        {
          "paramId": 0,
          "value": 0.0
        },
        {
          "paramId": 1,
          "value": 0.0
        },
        {
          "paramId": 2,
          "value": -32.6879196
        },
        {
          "paramId": 3,
          "value": 0.0
        },
        {
          "paramId": 4,
          "value": 0.468998402
        },
        {
          "paramId": 5,
          "value": 0.649000645
        },
        {
          "paramId": 6,
          "value": 0.287999809
        }
      ],
      "data": {
        "mode": 1,
        "range": 0,
        "sheep": true
      },
      "pos": [
        74,
        1
      ]
    },
    {
      "plugin": "mscHack",
      "version": "0.6.3",
      "model": "MasterClockx4",
      "params": [
        {
          "paramId": 0,
          "value": 120.0
        },
        {
          "paramId": 5,
          "value": 0.229499981
        },
        {
          "paramId": 1,
          "value": 3.0
        },
        {
          "paramId": 2,
          "value": 12.0
        },
        {
          "paramId": 3,
          "value": 12.0
        },
        {
          "paramId": 4,
          "value": 12.0
        }
      ],
      "data": {
        "m_bGlobalStopState": [
          false
        ],
        "m_bStopState": [
          false,
          false,
          false,
          false
        ],
        "m_bTimeX2": [
          false,
          false,
          false,
          false
        ],
        "m_ChannelMultSelect": [
          3,
          12,
          12,
          12
        ]
      },
      "pos": [
        1,
        1
      ]
    },
    {
      "plugin": "Bogaudio",
      "version": "0.6.7",
      "model": "Bogaudio-LFO",
      "params": [
        {
          "paramId": 0,
          "value": -1.24799883
        },
        {
          "paramId": 1,
          "value": 0.0
        },
        {
          "paramId": 2,
          "value": 0.771000564
        },
        {
          "paramId": 3,
          "value": 0.507000327
        },
        {
          "paramId": 4,
          "value": 0.273000062
        },
        {
          "paramId": 5,
          "value": 1.0
        }
      ],
      "pos": [
        34,
        1
      ]
    },
    {
      "plugin": "Bogaudio",
      "version": "0.6.7",
      "model": "Bogaudio-LFO",
      "params": [
        {
          "paramId": 0,
          "value": -1.71600091
        },
        {
          "paramId": 1,
          "value": 1.0
        },
        {
          "paramId": 2,
          "value": 0.0
        },
        {
          "paramId": 3,
          "value": 0.0
        },
        {
          "paramId": 4,
          "value": 0.0
        },
        {
          "paramId": 5,
          "value": 1.0
        }
      ],
      "pos": [
        24,
        1
      ]
    },
    {
      "plugin": "ImpromptuModular",
      "version": "0.6.10",
      "model": "Write-Seq-32",
      "params": [
        {
          "paramId": 23,
          "value": 1.0
        },
        {
          "paramId": 0,
          "value": 1.0
        },
        {
          "paramId": 5,
          "value": 1.0
        },
        {
          "paramId": 1,
          "value": 0.0
        },
        {
          "paramId": 2,
          "value": 0.0
        },
        {
          "paramId": 3,
          "value": 0.0
        },
        {
          "paramId": 4,
          "value": 0.0
        },
        {
          "paramId": 6,
          "value": 0.0
        },
        {
          "paramId": 7,
          "value": 0.0
        },
        {
          "paramId": 8,
          "value": 0.0
        },
        {
          "paramId": 9,
          "value": 0.0
        },
        {
          "paramId": 10,
          "value": 0.0
        },
        {
          "paramId": 11,
          "value": 0.0
        },
        {
          "paramId": 12,
          "value": 0.0
        },
        {
          "paramId": 13,
          "value": 0.0
        },
        {
          "paramId": 14,
          "value": 0.0
        },
        {
          "paramId": 15,
          "value": 0.0
        },
        {
          "paramId": 16,
          "value": 0.0
        },
        {
          "paramId": 24,
          "value": 0.0
        },
        {
          "paramId": 19,
          "value": 0.0
        },
        {
          "paramId": 17,
          "value": 0.0
        },
        {
          "paramId": 21,
          "value": 0.0
        },
        {
          "paramId": 18,
          "value": 0.0
        },
        {
          "paramId": 22,
          "value": 3.0
        },
        {
          "paramId": 20,
          "value": 1.0
        }
      ],
      "data": {
        "panelTheme": 0,
        "running": true,
        "indexStep": 0,
        "indexStepStage": 0,
        "indexChannel": 0,
        "cv": [
          0.0,
          0.333333343,
          0.166666672,
          0.0,
          0.0,
          0.0,
          0.0,
          0.0,
          0.0,
          0.0,
          0.0,
          0.0,
          0.0,
          0.0,
          0.0,
          0.0,
          0.0,
          0.0,
          0.0,
          0.0,
          0.0,
          0.0,
          0.0,
          0.0,
          0.0,
          0.0,
          0.0,
          0.0,
          0.0,
          0.0,
          0.0,
          0.0,
          0.0,
          0.0,
          0.0,
          0.0,
          0.0,
          0.0,
          0.0,
          0.0,
          0.0,
          0.0,
          0.0,
          0.0,
          0.0,
          0.0,
          0.0,
          0.0,
          0.0,
          0.0,
          0.0,
          0.0,
          0.0,
          0.0,
          0.0,
          0.0,
          0.0,
          0.0,
          0.0,
          0.0,
          0.0,
          0.0,
          0.0,
          0.0,
          0.0,
          0.0,
          0.0,
          0.0,
          0.0,
          0.0,
          0.0,
          0.0,
          0.0,
          0.0,
          0.0,
          0.0,
          0.0,
          0.0,
          0.0,
          0.0,
          0.0,
          0.0,
          0.0,
          0.0,
          0.0,
          0.0,
          0.0,
          0.0,
          0.0,
          0.0,
          0.0,
          0.0,
          0.0,
          0.0,
          0.0,
          0.0,
          0.0,
          0.0,
          0.0,
          0.0,
          0.0,
          0.0,
          0.0,
          0.0,
          0.0,
          0.0,
          0.0,
          0.0,
          0.0,
          0.0,
          0.0,
          0.0,
          0.0,
          0.0,
          0.0,
          0.0,
          0.0,
          0.0,
          0.0,
          0.0,
          0.0,
          0.0,
          0.0,
          0.0,
          0.0,
          0.0,
          0.0,
          0.0
        ],
        "gates": [
          1,
          1,
          1,
          1,
          1,
          1,
          1,
          1,
          1,
          1,
          1,
          1,
          1,
          1,
          1,
          1,
          1,
          1,
          1,
          1,
          1,
          1,
          1,
          1,
          1,
          1,
          1,
          1,
          1,
          1,
          1,
          1,
          1,
          1,
          1,
          1,
          1,
          1,
          1,
          1,
          1,
          1,
          1,
          1,
          1,
          1,
          1,
          1,
          1,
          1,
          1,
          1,
          1,
          1,
          1,
          1,
          1,
          1,
          1,
          1,
          1,
          1,
          1,
          1,
          1,
          1,
          1,
          1,
          1,
          1,
          1,
          1,
          1,
          1,
          1,
          1,
          1,
          1,
          1,
          1,
          1,
          1,
          1,
          1,
          1,
          1,
          1,
          1,
          1,
          1,
          1,
          1,
          1,
          1,
          1,
          1,
          1,
          1,
          1,
          1,
          1,
          1,
          1,
          1,
          1,
          1,
          1,
          1,
          1,
          1,
          1,
          1,
          1,
          1,
          1,
          1,
          1,
          1,
          1,
          1,
          1,
          1,
          1,
          1,
          1,
          1,
          1,
          1
        ],
        "resetOnRun": false
      },
      "pos": [
        42,
        0
      ]
    },
    {
      "plugin": "Core",
      "version": "0.6.2b",
      "model": "MIDIToCVInterface",
      "params": [],
      "data": {
        "divisions": [
          24,
          6
        ],
        "midi": {
          "driver": -11,
          "deviceName": "QWERTY keyboard (US)",
          "channel": -1
        }
      },
      "pos": [
        10,
        0
      ]
    },
    {
      "plugin": "RJModules",
      "version": "0.6.0",
      "model": "Button",
      "params": [
        {
          "paramId": 0,
          "value": 0.0
        }
      ],
      "pos": [
        26,
        0
      ]
    },
    {
      "plugin": "HetrickCV",
      "version": "0.6.0",
      "model": "Comparator",
      "params": [
        {
          "paramId": 0,
          "value": 0.0
        },
        {
          "paramId": 1,
          "value": 1.0
        }
      ],
      "pos": [
        63,
        2
      ]
    },
    {
      "plugin": "LOGinstruments",
      "version": "0.6.0",
      "model": "Constant2",
      "params": [
        {
          "paramId": 0,
          "value": 0.0
        },
        {
          "paramId": 1,
          "value": -0.170006841
        },
        {
          "paramId": 2,
          "value": 0.0
        }
      ],
      "pos": [
        73,
        2
      ]
    },
    {
      "plugin": "Bogaudio",
      "version": "0.6.7",
      "model": "Bogaudio-LFO",
      "params": [
        {
          "paramId": 0,
          "value": -5.69399929
        },
        {
          "paramId": 1,
          "value": 1.0
        },
        {
          "paramId": 2,
          "value": 0.0
        },
        {
          "paramId": 3,
          "value": 0.0
        },
        {
          "paramId": 4,
          "value": 0.0
        },
        {
          "paramId": 5,
          "value": 0.203500077
        }
      ],
      "pos": [
        29,
        2
      ]
    },
    {
      "plugin": "Bogaudio",
      "version": "0.6.7",
      "model": "Bogaudio-LFO",
      "params": [
        {
          "paramId": 0,
          "value": -5.30399942
        },
        {
          "paramId": 1,
          "value": 1.0
        },
        {
          "paramId": 2,
          "value": 0.0
        },
        {
          "paramId": 3,
          "value": 0.0
        },
        {
          "paramId": 4,
          "value": 0.0
        },
        {
          "paramId": 5,
          "value": 0.875499964
        }
      ],
      "pos": [
        40,
        2
      ]
    },
    {
      "plugin": "NYSTHI",
      "version": "0.6.21",
      "model": "MVerb",
      "params": [
        {
          "paramId": 0,
          "value": 0.279499948
        },
        {
          "paramId": 1,
          "value": 0.364999741
        },
        {
          "paramId": 2,
          "value": 0.586999893
        },
        {
          "paramId": 3,
          "value": 0.430499643
        },
        {
          "paramId": 4,
          "value": 0.5
        },
        {
          "paramId": 5,
          "value": 0.787999272
        },
        {
          "paramId": 6,
          "value": 0.70050025
        },
        {
          "paramId": 7,
          "value": 0.800000012
        },
        {
          "paramId": 8,
          "value": 0.489500344
        },
        {
          "paramId": 9,
          "value": 0.0
        }
      ],
      "pos": [
        110,
        0
      ]
    }
  ],
  "wires": [
    {
      "color": "#c9b70e",
      "outputModuleId": 1,
      "outputId": 0,
      "inputModuleId": 14,
      "inputId": 0
    },
    {
      "color": "#c91847",
      "outputModuleId": 1,
      "outputId": 1,
      "inputModuleId": 14,
      "inputId": 1
    },
    {
      "color": "#0c8e15",
      "outputModuleId": 5,
      "outputId": 0,
      "inputModuleId": 0,
      "inputId": 7
    },
    {
      "color": "#c91847",
      "outputModuleId": 6,
      "outputId": 3,
      "inputModuleId": 5,
      "inputId": 0
    },
    {
      "color": "#0986ad",
      "outputModuleId": 6,
      "outputId": 3,
      "inputModuleId": 0,
      "inputId": 3
    },
    {
      "color": "#c9b70e",
      "outputModuleId": 5,
      "outputId": 2,
      "inputModuleId": 0,
      "inputId": 5
    },
    {
      "color": "#c9b70e",
      "outputModuleId": 0,
      "outputId": 0,
      "inputModuleId": 1,
      "inputId": 1
    },
    {
      "color": "#c9b70e",
      "outputModuleId": 7,
      "outputId": 0,
      "inputModuleId": 0,
      "inputId": 6
    },
    {
      "color": "#c91847",
      "outputModuleId": 8,
      "outputId": 1,
      "inputModuleId": 7,
      "inputId": 3
    },
    {
      "color": "#0c8e15",
      "outputModuleId": 8,
      "outputId": 0,
      "inputModuleId": 7,
      "inputId": 1
    },
    {
      "color": "#c9b70e",
      "outputModuleId": 7,
      "outputId": 0,
      "inputModuleId": 3,
      "inputId": 5
    },
    {
      "color": "#c91847",
      "outputModuleId": 9,
      "outputId": 0,
      "inputModuleId": 7,
      "inputId": 8
    },
    {
      "color": "#c91847",
      "outputModuleId": 11,
      "outputId": 1,
      "inputModuleId": 10,
      "inputId": 1
    },
    {
      "color": "#0c8e15",
      "outputModuleId": 5,
      "outputId": 0,
      "inputModuleId": 10,
      "inputId": 0
    },
    {
      "color": "#0986ad",
      "outputModuleId": 10,
      "outputId": 0,
      "inputModuleId": 3,
      "inputId": 4
    },
    {
      "color": "#c91847",
      "outputModuleId": 10,
      "outputId": 1,
      "inputModuleId": 4,
      "inputId": 0
    },
    {
      "color": "#c9b70e",
      "outputModuleId": 3,
      "outputId": 2,
      "inputModuleId": 1,
      "inputId": 4
    },
    {
      "color": "#c91847",
      "outputModuleId": 4,
      "outputId": 16,
      "inputModuleId": 4,
      "inputId": 1
    },
    {
      "color": "#0c8e15",
      "outputModuleId": 4,
      "outputId": 4,
      "inputModuleId": 7,
      "inputId": 6
    },
    {
      "color": "#0986ad",
      "outputModuleId": 12,
      "outputId": 3,
      "inputModuleId": 3,
      "inputId": 1
    },
    {
      "color": "#c9b70e",
      "outputModuleId": 12,
      "outputId": 4,
      "inputModuleId": 3,
      "inputId": 0
    },
    {
      "color": "#c91847",
      "outputModuleId": 12,
      "outputId": 0,
      "inputModuleId": 0,
      "inputId": 0
    },
    {
      "color": "#0c8e15",
      "outputModuleId": 13,
      "outputId": 4,
      "inputModuleId": 0,
      "inputId": 4
    },
    {
      "color": "#0986ad",
      "outputModuleId": 14,
      "outputId": 0,
      "inputModuleId": 2,
      "inputId": 0
    },
    {
      "color": "#c9b70e",
      "outputModuleId": 14,
      "outputId": 1,
      "inputModuleId": 2,
      "inputId": 1
    }
  ]
}