{
  "version": "0.6.2b",
  "modules": [
    {
      "plugin": "Core",
      "version": "0.6.2b",
      "model": "QuadMIDIToCVInterface",
      "params": [],
      "data": {
        "midi": {
          "driver": 1,
          "deviceName": "Clavinova",
          "channel": 0
        },
        "polyMode": 2
      },
      "pos": [
        0,
        0
      ]
    },
    {
      "plugin": "mental",
      "version": "0.6.3",
      "model": "MentalMixer",
      "params": [
        {
          "paramId": 0,
          "value": 0.5
        },
        {
          "paramId": 1,
          "value": 0.0
        },
        {
          "paramId": 2,
          "value": 0.0
        },
        {
          "paramId": 3,
          "value": 0.0
        },
        {
          "paramId": 4,
          "value": 0.0
        },
        {
          "paramId": 5,
          "value": 0.688499868
        },
        {
          "paramId": 17,
          "value": 0.5
        },
        {
          "paramId": 29,
          "value": 0.0
        },
        {
          "paramId": 41,
          "value": 0.0
        },
        {
          "paramId": 53,
          "value": 0.0
        },
        {
          "paramId": 6,
          "value": 0.654000461
        },
        {
          "paramId": 18,
          "value": 0.5
        },
        {
          "paramId": 30,
          "value": 0.0
        },
        {
          "paramId": 42,
          "value": 0.0
        },
        {
          "paramId": 54,
          "value": 0.0
        },
        {
          "paramId": 7,
          "value": 0.634499967
        },
        {
          "paramId": 19,
          "value": 0.5
        },
        {
          "paramId": 31,
          "value": 0.0
        },
        {
          "paramId": 43,
          "value": 0.0
        },
        {
          "paramId": 55,
          "value": 0.0
        },
        {
          "paramId": 8,
          "value": 0.610500038
        },
        {
          "paramId": 20,
          "value": 0.5
        },
        {
          "paramId": 32,
          "value": 0.0
        },
        {
          "paramId": 44,
          "value": 0.0
        },
        {
          "paramId": 56,
          "value": 0.0
        },
        {
          "paramId": 9,
          "value": 0.0
        },
        {
          "paramId": 21,
          "value": 0.5
        },
        {
          "paramId": 33,
          "value": 0.0
        },
        {
          "paramId": 45,
          "value": 0.0
        },
        {
          "paramId": 57,
          "value": 0.0
        },
        {
          "paramId": 10,
          "value": 0.0
        },
        {
          "paramId": 22,
          "value": 0.5
        },
        {
          "paramId": 34,
          "value": 0.0
        },
        {
          "paramId": 46,
          "value": 0.0
        },
        {
          "paramId": 58,
          "value": 0.0
        },
        {
          "paramId": 11,
          "value": 0.0
        },
        {
          "paramId": 23,
          "value": 0.5
        },
        {
          "paramId": 35,
          "value": 0.0
        },
        {
          "paramId": 47,
          "value": 0.0
        },
        {
          "paramId": 59,
          "value": 0.0
        },
        {
          "paramId": 12,
          "value": 0.0
        },
        {
          "paramId": 24,
          "value": 0.5
        },
        {
          "paramId": 36,
          "value": 0.0
        },
        {
          "paramId": 48,
          "value": 0.0
        },
        {
          "paramId": 60,
          "value": 0.0
        },
        {
          "paramId": 13,
          "value": 0.0
        },
        {
          "paramId": 25,
          "value": 0.5
        },
        {
          "paramId": 37,
          "value": 0.0
        },
        {
          "paramId": 49,
          "value": 0.0
        },
        {
          "paramId": 61,
          "value": 0.0
        },
        {
          "paramId": 14,
          "value": 0.0
        },
        {
          "paramId": 26,
          "value": 0.5
        },
        {
          "paramId": 38,
          "value": 0.0
        },
        {
          "paramId": 50,
          "value": 0.0
        },
        {
          "paramId": 62,
          "value": 0.0
        },
        {
          "paramId": 15,
          "value": 0.0
        },
        {
          "paramId": 27,
          "value": 0.5
        },
        {
          "paramId": 39,
          "value": 0.0
        },
        {
          "paramId": 51,
          "value": 0.0
        },
        {
          "paramId": 63,
          "value": 0.0
        },
        {
          "paramId": 16,
          "value": 0.0
        },
        {
          "paramId": 28,
          "value": 0.5
        },
        {
          "paramId": 40,
          "value": 0.0
        },
        {
          "paramId": 52,
          "value": 0.0
        },
        {
          "paramId": 64,
          "value": 0.0
        }
      ],
      "data": {
        "mutes": [
          1,
          1,
          1,
          1,
          1,
          1,
          1,
          1,
          1,
          1,
          1,
          1
        ]
      },
      "pos": [
        66,
        0
      ]
    },
    {
      "plugin": "Core",
      "version": "0.6.2b",
      "model": "AudioInterface",
      "params": [],
      "data": {
        "audio": {
          "driver": 5,
          "deviceName": "Apple Inc.: Built-in Output",
          "offset": 0,
          "maxChannels": 8,
          "sampleRate": 44100,
          "blockSize": 256
        }
      },
      "pos": [
        92,
        0
      ]
    },
    {
      "plugin": "Gratrix",
      "version": "0.6.0",
      "model": "VCO-F1",
      "params": [
        {
          "paramId": 0,
          "value": 1.0
        },
        {
          "paramId": 1,
          "value": 1.0
        },
        {
          "paramId": 2,
          "value": 0.0
        },
        {
          "paramId": 3,
          "value": 0.0
        },
        {
          "paramId": 5,
          "value": 0.5
        },
        {
          "paramId": 4,
          "value": 0.0
        },
        {
          "paramId": 6,
          "value": 0.0
        }
      ],
      "pos": [
        0,
        1
      ]
    },
    {
      "plugin": "Gratrix",
      "version": "0.6.0",
      "model": "ADSR-F1",
      "params": [
        {
          "paramId": 0,
          "value": 0.0739998892
        },
        {
          "paramId": 1,
          "value": 0.403999895
        },
        {
          "paramId": 2,
          "value": 0.827000022
        },
        {
          "paramId": 3,
          "value": 0.60650003
        }
      ],
      "pos": [
        24,
        1
      ]
    },
    {
      "plugin": "Gratrix",
      "version": "0.6.0",
      "model": "VCA-F1",
      "params": [
        {
          "paramId": 0,
          "value": 0.5
        },
        {
          "paramId": 1,
          "value": 0.5
        },
        {
          "paramId": 2,
          "value": 0.5
        }
      ],
      "pos": [
        36,
        1
      ]
    },
    {
      "plugin": "Gratrix",
      "version": "0.6.0",
      "model": "VCF-F1",
      "params": [
        {
          "paramId": 0,
          "value": 0.0770000517
        },
        {
          "paramId": 1,
          "value": 0.5
        },
        {
          "paramId": 2,
          "value": 0.222000048
        },
        {
          "paramId": 3,
          "value": 0.795000315
        },
        {
          "paramId": 4,
          "value": 0.178499997
        }
      ],
      "pos": [
        48,
        1
      ]
    },
    {
      "plugin": "Gratrix",
      "version": "0.6.0",
      "model": "ADSR-F1",
      "params": [
        {
          "paramId": 0,
          "value": 0.0739998892
        },
        {
          "paramId": 1,
          "value": 0.403999895
        },
        {
          "paramId": 2,
          "value": 0.627499938
        },
        {
          "paramId": 3,
          "value": 0.60650003
        }
      ],
      "pos": [
        24,
        2
      ]
    }
  ],
  "wires": [
    {
      "color": "#0986ad",
      "outputModuleId": 1,
      "outputId": 0,
      "inputModuleId": 2,
      "inputId": 0
    },
    {
      "color": "#c9b70e",
      "outputModuleId": 1,
      "outputId": 1,
      "inputModuleId": 2,
      "inputId": 1
    },
    {
      "color": "#c91847",
      "outputModuleId": 0,
      "outputId": 0,
      "inputModuleId": 3,
      "inputId": 0
    },
    {
      "color": "#0c8e15",
      "outputModuleId": 0,
      "outputId": 1,
      "inputModuleId": 3,
      "inputId": 4
    },
    {
      "color": "#0986ad",
      "outputModuleId": 0,
      "outputId": 2,
      "inputModuleId": 3,
      "inputId": 8
    },
    {
      "color": "#c9b70e",
      "outputModuleId": 0,
      "outputId": 3,
      "inputModuleId": 3,
      "inputId": 12
    },
    {
      "color": "#c91847",
      "outputModuleId": 3,
      "outputId": 2,
      "inputModuleId": 5,
      "inputId": 2
    },
    {
      "color": "#0c8e15",
      "outputModuleId": 3,
      "outputId": 6,
      "inputModuleId": 5,
      "inputId": 5
    },
    {
      "color": "#0986ad",
      "outputModuleId": 3,
      "outputId": 10,
      "inputModuleId": 5,
      "inputId": 8
    },
    {
      "color": "#c9b70e",
      "outputModuleId": 3,
      "outputId": 14,
      "inputModuleId": 5,
      "inputId": 11
    },
    {
      "color": "#c91847",
      "outputModuleId": 4,
      "outputId": 0,
      "inputModuleId": 5,
      "inputId": 0
    },
    {
      "color": "#0986ad",
      "outputModuleId": 4,
      "outputId": 2,
      "inputModuleId": 5,
      "inputId": 3
    },
    {
      "color": "#c9b70e",
      "outputModuleId": 4,
      "outputId": 4,
      "inputModuleId": 5,
      "inputId": 6
    },
    {
      "color": "#c91847",
      "outputModuleId": 4,
      "outputId": 6,
      "inputModuleId": 5,
      "inputId": 9
    },
    {
      "color": "#0c8e15",
      "outputModuleId": 0,
      "outputId": 4,
      "inputModuleId": 4,
      "inputId": 4
    },
    {
      "color": "#c9b70e",
      "outputModuleId": 0,
      "outputId": 5,
      "inputModuleId": 4,
      "inputId": 6
    },
    {
      "color": "#c91847",
      "outputModuleId": 0,
      "outputId": 6,
      "inputModuleId": 4,
      "inputId": 8
    },
    {
      "color": "#0c8e15",
      "outputModuleId": 0,
      "outputId": 7,
      "inputModuleId": 4,
      "inputId": 10
    },
    {
      "color": "#0986ad",
      "outputModuleId": 0,
      "outputId": 4,
      "inputModuleId": 7,
      "inputId": 4
    },
    {
      "color": "#c9b70e",
      "outputModuleId": 0,
      "outputId": 5,
      "inputModuleId": 7,
      "inputId": 6
    },
    {
      "color": "#c91847",
      "outputModuleId": 0,
      "outputId": 6,
      "inputModuleId": 7,
      "inputId": 8
    },
    {
      "color": "#0c8e15",
      "outputModuleId": 0,
      "outputId": 7,
      "inputModuleId": 7,
      "inputId": 10
    },
    {
      "color": "#0986ad",
      "outputModuleId": 7,
      "outputId": 0,
      "inputModuleId": 6,
      "inputId": 0
    },
    {
      "color": "#c9b70e",
      "outputModuleId": 7,
      "outputId": 2,
      "inputModuleId": 6,
      "inputId": 4
    },
    {
      "color": "#c91847",
      "outputModuleId": 7,
      "outputId": 4,
      "inputModuleId": 6,
      "inputId": 8
    },
    {
      "color": "#0c8e15",
      "outputModuleId": 7,
      "outputId": 6,
      "inputModuleId": 6,
      "inputId": 12
    },
    {
      "color": "#0986ad",
      "outputModuleId": 5,
      "outputId": 2,
      "inputModuleId": 6,
      "inputId": 3
    },
    {
      "color": "#c9b70e",
      "outputModuleId": 5,
      "outputId": 3,
      "inputModuleId": 6,
      "inputId": 7
    },
    {
      "color": "#c91847",
      "outputModuleId": 5,
      "outputId": 4,
      "inputModuleId": 6,
      "inputId": 11
    },
    {
      "color": "#0c8e15",
      "outputModuleId": 5,
      "outputId": 5,
      "inputModuleId": 6,
      "inputId": 15
    },
    {
      "color": "#0986ad",
      "outputModuleId": 6,
      "outputId": 0,
      "inputModuleId": 1,
      "inputId": 0
    },
    {
      "color": "#c9b70e",
      "outputModuleId": 6,
      "outputId": 2,
      "inputModuleId": 1,
      "inputId": 1
    },
    {
      "color": "#c91847",
      "outputModuleId": 6,
      "outputId": 4,
      "inputModuleId": 1,
      "inputId": 2
    },
    {
      "color": "#0c8e15",
      "outputModuleId": 6,
      "outputId": 6,
      "inputModuleId": 1,
      "inputId": 3
    }
  ]
}