{
  "version": "0.6.2b",
  "modules": [
    {
      "plugin": "Core",
      "version": "0.6.2b",
      "model": "AudioInterface",
      "params": [],
      "data": {
        "audio": {
          "driver": 5,
          "deviceName": "Apple Inc.: Built-in Output",
          "offset": 0,
          "maxChannels": 8,
          "sampleRate": 44100,
          "blockSize": 256
        }
      },
      "pos": [
        87,
        0
      ]
    },
    {
      "plugin": "Valley",
      "version": "0.6.6",
      "model": "Plateau",
      "params": [
        {
          "paramId": 0,
          "value": 1.0
        },
        {
          "paramId": 1,
          "value": 0.5
        },
        {
          "paramId": 2,
          "value": 0.0
        },
        {
          "paramId": 3,
          "value": 10.0
        },
        {
          "paramId": 4,
          "value": 10.0
        },
        {
          "paramId": 5,
          "value": 0.5
        },
        {
          "paramId": 6,
          "value": 10.0
        },
        {
          "paramId": 7,
          "value": 0.549950004
        },
        {
          "paramId": 9,
          "value": 10.0
        },
        {
          "paramId": 8,
          "value": 10.0
        },
        {
          "paramId": 10,
          "value": 0.0
        },
        {
          "paramId": 12,
          "value": 0.5
        },
        {
          "paramId": 11,
          "value": 0.5
        },
        {
          "paramId": 17,
          "value": 0.0
        },
        {
          "paramId": 18,
          "value": 0.0
        },
        {
          "paramId": 19,
          "value": 0.0
        },
        {
          "paramId": 20,
          "value": 0.0
        },
        {
          "paramId": 21,
          "value": 0.0
        },
        {
          "paramId": 22,
          "value": 0.0
        },
        {
          "paramId": 23,
          "value": 0.0
        },
        {
          "paramId": 25,
          "value": 0.0
        },
        {
          "paramId": 24,
          "value": 0.0
        },
        {
          "paramId": 26,
          "value": 0.0
        },
        {
          "paramId": 28,
          "value": 0.0
        },
        {
          "paramId": 27,
          "value": 0.0
        },
        {
          "paramId": 13,
          "value": 0.0
        },
        {
          "paramId": 15,
          "value": 0.0
        },
        {
          "paramId": 14,
          "value": 0.0
        },
        {
          "paramId": 29,
          "value": 0.0
        },
        {
          "paramId": 30,
          "value": 0.0
        }
      ],
      "data": {
        "frozen": false,
        "freezeToggle": false,
        "panelStyle": 0,
        "tuned": 0,
        "diffuseInput": 1,
        "preDelayCVSens": 0
      },
      "pos": [
        75,
        0
      ]
    },
    {
      "plugin": "VultModulesFree",
      "version": "0.6.16",
      "model": "Vessek",
      "params": [
        {
          "paramId": 0,
          "value": 0.0
        },
        {
          "paramId": 1,
          "value": -1.0
        },
        {
          "paramId": 2,
          "value": -1.0
        },
        {
          "paramId": 3,
          "value": -1.0
        },
        {
          "paramId": 4,
          "value": 1.0
        },
        {
          "paramId": 5,
          "value": 0.0
        },
        {
          "paramId": 6,
          "value": -1.0
        },
        {
          "paramId": 7,
          "value": -1.0
        },
        {
          "paramId": 8,
          "value": -0.94599992
        },
        {
          "paramId": 9,
          "value": 0.0
        },
        {
          "paramId": 10,
          "value": 0.5
        },
        {
          "paramId": 11,
          "value": 0.0
        },
        {
          "paramId": 12,
          "value": 0.0449999906
        },
        {
          "paramId": 13,
          "value": 0.334499955
        },
        {
          "paramId": 15,
          "value": 0.0
        },
        {
          "paramId": 16,
          "value": 0.0
        },
        {
          "paramId": 17,
          "value": 0.00600005127
        },
        {
          "paramId": 18,
          "value": 0.0
        },
        {
          "paramId": 14,
          "value": 0.330000043
        },
        {
          "paramId": 21,
          "value": 0.666000068
        },
        {
          "paramId": 22,
          "value": 0.0
        },
        {
          "paramId": 23,
          "value": 0.0
        },
        {
          "paramId": 24,
          "value": 0.0
        },
        {
          "paramId": 25,
          "value": 0.0
        },
        {
          "paramId": 26,
          "value": 0.0
        },
        {
          "paramId": 27,
          "value": 0.0
        },
        {
          "paramId": 28,
          "value": 0.0
        },
        {
          "paramId": 29,
          "value": 0.0
        },
        {
          "paramId": 30,
          "value": 0.0
        },
        {
          "paramId": 31,
          "value": 0.0
        },
        {
          "paramId": 32,
          "value": 0.0
        },
        {
          "paramId": 33,
          "value": -1.0
        }
      ],
      "data": {
        "mod_a": 1,
        "mod_b": 0,
        "mod_c": 0,
        "mod_d": 0,
        "mod_e": 0,
        "mod_f": 0
      },
      "pos": [
        24,
        0
      ]
    },
    {
      "plugin": "VultModulesFree",
      "version": "0.6.16",
      "model": "UtilKnobs",
      "params": [
        {
          "paramId": 0,
          "value": 0.628500283
        },
        {
          "paramId": 1,
          "value": 0.0419999994
        },
        {
          "paramId": 2,
          "value": 0.320999712
        },
        {
          "paramId": 3,
          "value": 0.168000191
        },
        {
          "paramId": 4,
          "value": 0.141000003
        },
        {
          "paramId": 5,
          "value": 2.0
        },
        {
          "paramId": 6,
          "value": 0.609499633
        },
        {
          "paramId": 7,
          "value": 0.0450000018
        },
        {
          "paramId": 8,
          "value": 0.545999408
        },
        {
          "paramId": 9,
          "value": 0.0989999771
        },
        {
          "paramId": 10,
          "value": 0.0390000008
        },
        {
          "paramId": 11,
          "value": 2.0
        }
      ],
      "pos": [
        87,
        1
      ]
    },
    {
      "plugin": "VultModulesFree",
      "version": "0.6.16",
      "model": "Caudal",
      "params": [
        {
          "paramId": 0,
          "value": 0.701999784
        },
        {
          "paramId": 1,
          "value": 0.674999833
        },
        {
          "paramId": 2,
          "value": 0.0
        },
        {
          "paramId": 3,
          "value": 0.0
        },
        {
          "paramId": 4,
          "value": 0.0
        },
        {
          "paramId": 5,
          "value": 0.0
        },
        {
          "paramId": 6,
          "value": 0.0
        },
        {
          "paramId": 7,
          "value": 0.0
        }
      ],
      "data": {
        "phi1": 0.772265553,
        "phi2": -0.158496872,
        "phi3": -0.176061615,
        "phi4": 2.24820614,
        "w1": 7.93761253,
        "w2": 10.5269575,
        "w3": -36.6126823,
        "w4": -34.1213264,
        "store_phi1": -0.516650498,
        "store_phi2": 0.624557793,
        "store_phi3": 0.63062501,
        "store_phi4": -2.04296827,
        "store_w1": 3.93972564,
        "store_w2": 3.73051977,
        "store_w3": -22.7365913,
        "store_w4": -46.8904419
      },
      "pos": [
        20,
        1
      ]
    },
    {
      "plugin": "VultModulesFree",
      "version": "0.6.16",
      "model": "Lateralus",
      "params": [
        {
          "paramId": 0,
          "value": 0.626001596
        },
        {
          "paramId": 1,
          "value": 0.642000735
        },
        {
          "paramId": 2,
          "value": 0.371999979
        },
        {
          "paramId": 3,
          "value": 0.366000295
        },
        {
          "paramId": 4,
          "value": 1.09800017
        },
        {
          "paramId": 5,
          "value": 0.0
        }
      ],
      "pos": [
        30,
        1
      ]
    },
    {
      "plugin": "VultModulesFree",
      "version": "0.6.16",
      "model": "Caudal",
      "params": [
        {
          "paramId": 0,
          "value": -0.56400013
        },
        {
          "paramId": 1,
          "value": 0.674999833
        },
        {
          "paramId": 2,
          "value": 1.0
        },
        {
          "paramId": 3,
          "value": 0.113999978
        },
        {
          "paramId": 4,
          "value": 0.0
        },
        {
          "paramId": 5,
          "value": 0.0
        },
        {
          "paramId": 6,
          "value": 0.0
        },
        {
          "paramId": 7,
          "value": 0.0
        }
      ],
      "data": {
        "phi1": -1.99848533,
        "phi2": 2.29408145,
        "phi3": -5.35353708,
        "phi4": 0.0754597038,
        "w1": -6.64967966,
        "w2": 4.38641977,
        "w3": -21.6994171,
        "w4": 15.9334173,
        "store_phi1": -2.17219806,
        "store_phi2": -1.22206104,
        "store_phi3": 1.92387164,
        "store_phi4": 5.13593102,
        "store_w1": -13.0491047,
        "store_w2": 16.2494125,
        "store_w3": -15.3568344,
        "store_w4": -9.7238245
      },
      "pos": [
        10,
        1
      ]
    },
    {
      "plugin": "JW-Modules",
      "version": "0.6.3",
      "model": "SimpleClock",
      "params": [
        {
          "paramId": 1,
          "value": 0.0
        },
        {
          "paramId": 0,
          "value": 1.74400055
        },
        {
          "paramId": 3,
          "value": 0.0
        },
        {
          "paramId": 2,
          "value": -2.0
        }
      ],
      "data": {
        "running": true
      },
      "pos": [
        0,
        0
      ]
    },
    {
      "plugin": "VultModulesFree",
      "version": "0.6.16",
      "model": "UtilBypass",
      "params": [
        {
          "paramId": 0,
          "value": 0.0
        },
        {
          "paramId": 1,
          "value": 1.0
        }
      ],
      "data": {
        "state": true
      },
      "pos": [
        44,
        0
      ]
    },
    {
      "plugin": "VultModulesFree",
      "version": "0.6.16",
      "model": "Flux",
      "params": [
        {
          "paramId": 1,
          "value": 0.634999931
        },
        {
          "paramId": 6,
          "value": 0.5
        },
        {
          "paramId": 11,
          "value": 0.5
        },
        {
          "paramId": 16,
          "value": 0.5
        },
        {
          "paramId": 2,
          "value": 0.563999772
        },
        {
          "paramId": 7,
          "value": 0.0
        },
        {
          "paramId": 12,
          "value": 0.0
        },
        {
          "paramId": 17,
          "value": 0.0
        },
        {
          "paramId": 4,
          "value": 0.107999995
        },
        {
          "paramId": 9,
          "value": 0.0419999957
        },
        {
          "paramId": 14,
          "value": 0.00600000005
        },
        {
          "paramId": 19,
          "value": 0.0
        },
        {
          "paramId": 0,
          "value": 0.0
        },
        {
          "paramId": 5,
          "value": 0.0
        },
        {
          "paramId": 10,
          "value": 0.0
        },
        {
          "paramId": 15,
          "value": 0.0
        },
        {
          "paramId": 3,
          "value": 0.0
        },
        {
          "paramId": 8,
          "value": 1.0
        },
        {
          "paramId": 13,
          "value": 0.0
        },
        {
          "paramId": 18,
          "value": 0.0
        },
        {
          "paramId": 21,
          "value": 0.0
        },
        {
          "paramId": 22,
          "value": 0.0
        },
        {
          "paramId": 23,
          "value": 0.0
        },
        {
          "paramId": 24,
          "value": 0.0
        },
        {
          "paramId": 25,
          "value": 0.0
        },
        {
          "paramId": 26,
          "value": 0.0
        },
        {
          "paramId": 27,
          "value": 0.0
        },
        {
          "paramId": 28,
          "value": 0.0
        },
        {
          "paramId": 29,
          "value": 0.0
        },
        {
          "paramId": 30,
          "value": 0.0
        },
        {
          "paramId": 31,
          "value": 0.0
        },
        {
          "paramId": 32,
          "value": 0.0
        }
      ],
      "data": {
        "mod_a": 0,
        "mod_b": 0,
        "mod_c": 0,
        "mod_d": 0,
        "mod_e": 0,
        "mod_f": 0
      },
      "pos": [
        4,
        0
      ]
    },
    {
      "plugin": "VultModulesFree",
      "version": "0.6.16",
      "model": "Lateralus",
      "params": [
        {
          "paramId": 0,
          "value": 0.357499868
        },
        {
          "paramId": 1,
          "value": 0.245999992
        },
        {
          "paramId": 2,
          "value": 0.91200012
        },
        {
          "paramId": 3,
          "value": 0.500999749
        },
        {
          "paramId": 4,
          "value": 0.584999919
        },
        {
          "paramId": 5,
          "value": 0.288000107
        }
      ],
      "pos": [
        48,
        0
      ]
    },
    {
      "plugin": "VultModulesFree",
      "version": "0.6.16",
      "model": "Vessek",
      "params": [
        {
          "paramId": 0,
          "value": 0.0
        },
        {
          "paramId": 1,
          "value": 0.255000502
        },
        {
          "paramId": 2,
          "value": 0.443999916
        },
        {
          "paramId": 3,
          "value": -0.437999755
        },
        {
          "paramId": 4,
          "value": 2.0
        },
        {
          "paramId": 5,
          "value": 0.0
        },
        {
          "paramId": 6,
          "value": 0.167999998
        },
        {
          "paramId": 7,
          "value": 0.624000192
        },
        {
          "paramId": 8,
          "value": 0.651000023
        },
        {
          "paramId": 9,
          "value": 2.0
        },
        {
          "paramId": 10,
          "value": 0.5
        },
        {
          "paramId": 11,
          "value": 0.154499963
        },
        {
          "paramId": 12,
          "value": 0.0705000088
        },
        {
          "paramId": 13,
          "value": 0.324000001
        },
        {
          "paramId": 15,
          "value": 0.547500193
        },
        {
          "paramId": 16,
          "value": 0.308999956
        },
        {
          "paramId": 17,
          "value": 0.0
        },
        {
          "paramId": 18,
          "value": 0.0
        },
        {
          "paramId": 14,
          "value": 0.0
        },
        {
          "paramId": 21,
          "value": 0.0
        },
        {
          "paramId": 22,
          "value": 0.0
        },
        {
          "paramId": 23,
          "value": 0.0
        },
        {
          "paramId": 24,
          "value": 0.0
        },
        {
          "paramId": 25,
          "value": 0.0
        },
        {
          "paramId": 26,
          "value": 0.0
        },
        {
          "paramId": 27,
          "value": 0.0
        },
        {
          "paramId": 28,
          "value": 0.0
        },
        {
          "paramId": 29,
          "value": 0.0
        },
        {
          "paramId": 30,
          "value": 0.0
        },
        {
          "paramId": 31,
          "value": 0.0
        },
        {
          "paramId": 32,
          "value": 0.0
        },
        {
          "paramId": 33,
          "value": 0.0
        }
      ],
      "data": {
        "mod_a": 0,
        "mod_b": 0,
        "mod_c": 0,
        "mod_d": 0,
        "mod_e": 0,
        "mod_f": 0
      },
      "pos": [
        0,
        2
      ]
    },
    {
      "plugin": "VultModulesFree",
      "version": "0.6.16",
      "model": "Rescomb",
      "params": [
        {
          "paramId": 0,
          "value": 0.235199988
        },
        {
          "paramId": 1,
          "value": 0.669000149
        },
        {
          "paramId": 2,
          "value": 0.749097943
        },
        {
          "paramId": 3,
          "value": 0.0
        },
        {
          "paramId": 4,
          "value": 0.0
        }
      ],
      "pos": [
        40,
        2
      ]
    },
    {
      "plugin": "VultModulesFree",
      "version": "0.6.16",
      "model": "Lateralus",
      "params": [
        {
          "paramId": 0,
          "value": 0.443000734
        },
        {
          "paramId": 1,
          "value": 0.595500171
        },
        {
          "paramId": 2,
          "value": 0.452999979
        },
        {
          "paramId": 3,
          "value": 0.0
        },
        {
          "paramId": 4,
          "value": 0.638999999
        },
        {
          "paramId": 5,
          "value": 0.0
        }
      ],
      "pos": [
        30,
        2
      ]
    },
    {
      "plugin": "VultModulesFree",
      "version": "0.6.16",
      "model": "Unstabile",
      "params": [
        {
          "paramId": 0,
          "value": 0.566000819
        },
        {
          "paramId": 1,
          "value": 0.421500236
        },
        {
          "paramId": 2,
          "value": 0.491999924
        },
        {
          "paramId": 3,
          "value": 0.0
        },
        {
          "paramId": 4,
          "value": 0.843500078
        },
        {
          "paramId": 5,
          "value": 0.0
        },
        {
          "paramId": 6,
          "value": 1.08599973
        },
        {
          "paramId": 7,
          "value": 0.0
        }
      ],
      "pos": [
        20,
        2
      ]
    },
    {
      "plugin": "VultModulesFree",
      "version": "0.6.16",
      "model": "Trummor2",
      "params": [
        {
          "paramId": 0,
          "value": 0.0500000007
        },
        {
          "paramId": 1,
          "value": 0.361999899
        },
        {
          "paramId": 2,
          "value": 0.0464999899
        },
        {
          "paramId": 5,
          "value": 0.525000095
        },
        {
          "paramId": 3,
          "value": 0.0959999934
        },
        {
          "paramId": 4,
          "value": 0.196500003
        },
        {
          "paramId": 6,
          "value": 0.026999997
        },
        {
          "paramId": 7,
          "value": 0.200000003
        },
        {
          "paramId": 8,
          "value": 0.400000006
        },
        {
          "paramId": 9,
          "value": 1.0
        },
        {
          "paramId": 10,
          "value": 0.196500018
        },
        {
          "paramId": 11,
          "value": 0.699999988
        },
        {
          "paramId": 23,
          "value": 0.30250001
        },
        {
          "paramId": 12,
          "value": 0.0545000173
        },
        {
          "paramId": 14,
          "value": 0.0
        },
        {
          "paramId": 13,
          "value": 0.386999935
        },
        {
          "paramId": 15,
          "value": 0.84027493
        },
        {
          "paramId": 16,
          "value": 0.153000042
        },
        {
          "paramId": 18,
          "value": 0.0104999999
        },
        {
          "paramId": 19,
          "value": 0.605000019
        },
        {
          "paramId": 20,
          "value": 0.213500023
        },
        {
          "paramId": 17,
          "value": 0.0
        },
        {
          "paramId": 22,
          "value": 0.0314999968
        },
        {
          "paramId": 21,
          "value": 0.0
        },
        {
          "paramId": 25,
          "value": 0.0
        },
        {
          "paramId": 26,
          "value": 0.0
        },
        {
          "paramId": 27,
          "value": 0.0
        },
        {
          "paramId": 28,
          "value": 0.0
        },
        {
          "paramId": 29,
          "value": 0.0
        },
        {
          "paramId": 30,
          "value": 0.0
        },
        {
          "paramId": 31,
          "value": 0.0
        },
        {
          "paramId": 32,
          "value": 0.0
        }
      ],
      "data": {
        "mod_a": 0,
        "mod_b": 0,
        "mod_c": 0,
        "mod_d": 0
      },
      "pos": [
        40,
        1
      ]
    },
    {
      "plugin": "VultModulesFree",
      "version": "0.6.16",
      "model": "Caudal",
      "params": [
        {
          "paramId": 0,
          "value": -0.558999002
        },
        {
          "paramId": 1,
          "value": -0.663999856
        },
        {
          "paramId": 2,
          "value": 0.0
        },
        {
          "paramId": 3,
          "value": 0.0
        },
        {
          "paramId": 4,
          "value": 0.0
        },
        {
          "paramId": 5,
          "value": 0.0
        },
        {
          "paramId": 6,
          "value": 0.0
        },
        {
          "paramId": 7,
          "value": 0.0
        }
      ],
      "data": {
        "phi1": -1.27133942,
        "phi2": -2.75673985,
        "phi3": -4.06731129,
        "phi4": -5.77814579,
        "w1": 0.444444716,
        "w2": 2.85584688,
        "w3": -4.68960476,
        "w4": -14.2616072,
        "store_phi1": 0.0,
        "store_phi2": 0.0,
        "store_phi3": 0.0,
        "store_phi4": 0.0,
        "store_w1": 0.0,
        "store_w2": 0.0,
        "store_w3": 0.0,
        "store_w4": 0.0
      },
      "pos": [
        0,
        1
      ]
    },
    {
      "plugin": "JW-Modules",
      "version": "0.6.3",
      "model": "Quantizer",
      "params": [
        {
          "paramId": 0,
          "value": 0.0
        },
        {
          "paramId": 1,
          "value": 6.0
        }
      ],
      "data": {},
      "pos": [
        60,
        1
      ]
    }
  ],
  "wires": [
    {
      "color": "#c9b70e",
      "outputModuleId": 2,
      "outputId": 0,
      "inputModuleId": 8,
      "inputId": 1
    },
    {
      "color": "#0c8e15",
      "outputModuleId": 3,
      "outputId": 0,
      "inputModuleId": 1,
      "inputId": 0
    },
    {
      "color": "#0986ad",
      "outputModuleId": 3,
      "outputId": 1,
      "inputModuleId": 1,
      "inputId": 1
    },
    {
      "color": "#0986ad",
      "outputModuleId": 4,
      "outputId": 9,
      "inputModuleId": 5,
      "inputId": 0
    },
    {
      "color": "#0986ad",
      "outputModuleId": 5,
      "outputId": 3,
      "inputModuleId": 3,
      "inputId": 1
    },
    {
      "color": "#c9b70e",
      "outputModuleId": 5,
      "outputId": 1,
      "inputModuleId": 3,
      "inputId": 5
    },
    {
      "color": "#0c8e15",
      "outputModuleId": 6,
      "outputId": 9,
      "inputModuleId": 5,
      "inputId": 2
    },
    {
      "color": "#0986ad",
      "outputModuleId": 6,
      "outputId": 10,
      "inputModuleId": 5,
      "inputId": 1
    },
    {
      "color": "#c9b70e",
      "outputModuleId": 8,
      "outputId": 2,
      "inputModuleId": 10,
      "inputId": 0
    },
    {
      "color": "#c9b70e",
      "outputModuleId": 8,
      "outputId": 3,
      "inputModuleId": 3,
      "inputId": 2
    },
    {
      "color": "#0c8e15",
      "outputModuleId": 9,
      "outputId": 0,
      "inputModuleId": 8,
      "inputId": 0
    },
    {
      "color": "#c9b70e",
      "outputModuleId": 7,
      "outputId": 0,
      "inputModuleId": 9,
      "inputId": 14
    },
    {
      "color": "#c91847",
      "outputModuleId": 6,
      "outputId": 9,
      "inputModuleId": 9,
      "inputId": 0
    },
    {
      "color": "#0c8e15",
      "outputModuleId": 6,
      "outputId": 9,
      "inputModuleId": 2,
      "inputId": 3
    },
    {
      "color": "#0986ad",
      "outputModuleId": 10,
      "outputId": 0,
      "inputModuleId": 3,
      "inputId": 4
    },
    {
      "color": "#c9b70e",
      "outputModuleId": 10,
      "outputId": 0,
      "inputModuleId": 3,
      "inputId": 0
    },
    {
      "color": "#0c8e15",
      "outputModuleId": 6,
      "outputId": 6,
      "inputModuleId": 9,
      "inputId": 1
    },
    {
      "color": "#0986ad",
      "outputModuleId": 9,
      "outputId": 1,
      "inputModuleId": 10,
      "inputId": 1
    },
    {
      "color": "#c9b70e",
      "outputModuleId": 9,
      "outputId": 1,
      "inputModuleId": 10,
      "inputId": 2
    },
    {
      "color": "#c91847",
      "outputModuleId": 9,
      "outputId": 0,
      "inputModuleId": 10,
      "inputId": 3
    },
    {
      "color": "#0c8e15",
      "outputModuleId": 13,
      "outputId": 3,
      "inputModuleId": 12,
      "inputId": 1
    },
    {
      "color": "#0986ad",
      "outputModuleId": 13,
      "outputId": 1,
      "inputModuleId": 12,
      "inputId": 4
    },
    {
      "color": "#c9b70e",
      "outputModuleId": 12,
      "outputId": 0,
      "inputModuleId": 3,
      "inputId": 3
    },
    {
      "color": "#c91847",
      "outputModuleId": 12,
      "outputId": 1,
      "inputModuleId": 3,
      "inputId": 7
    },
    {
      "color": "#0986ad",
      "outputModuleId": 11,
      "outputId": 0,
      "inputModuleId": 14,
      "inputId": 0
    },
    {
      "color": "#c9b70e",
      "outputModuleId": 14,
      "outputId": 3,
      "inputModuleId": 13,
      "inputId": 0
    },
    {
      "color": "#0c8e15",
      "outputModuleId": 9,
      "outputId": 1,
      "inputModuleId": 11,
      "inputId": 0
    },
    {
      "color": "#0986ad",
      "outputModuleId": 6,
      "outputId": 11,
      "inputModuleId": 9,
      "inputId": 2
    },
    {
      "color": "#c9b70e",
      "outputModuleId": 9,
      "outputId": 2,
      "inputModuleId": 13,
      "inputId": 1
    },
    {
      "color": "#c91847",
      "outputModuleId": 9,
      "outputId": 1,
      "inputModuleId": 12,
      "inputId": 0
    },
    {
      "color": "#0c8e15",
      "outputModuleId": 7,
      "outputId": 2,
      "inputModuleId": 15,
      "inputId": 0
    },
    {
      "color": "#0986ad",
      "outputModuleId": 15,
      "outputId": 0,
      "inputModuleId": 8,
      "inputId": 2
    },
    {
      "color": "#0986ad",
      "outputModuleId": 1,
      "outputId": 1,
      "inputModuleId": 0,
      "inputId": 1
    },
    {
      "color": "#c9b70e",
      "outputModuleId": 1,
      "outputId": 0,
      "inputModuleId": 0,
      "inputId": 0
    },
    {
      "color": "#c91847",
      "outputModuleId": 16,
      "outputId": 6,
      "inputModuleId": 6,
      "inputId": 0
    },
    {
      "color": "#0c8e15",
      "outputModuleId": 16,
      "outputId": 10,
      "inputModuleId": 6,
      "inputId": 1
    },
    {
      "color": "#c9b70e",
      "outputModuleId": 10,
      "outputId": 1,
      "inputModuleId": 3,
      "inputId": 6
    },
    {
      "color": "#c91847",
      "outputModuleId": 5,
      "outputId": 1,
      "inputModuleId": 15,
      "inputId": 1
    },
    {
      "color": "#0c8e15",
      "outputModuleId": 6,
      "outputId": 7,
      "inputModuleId": 14,
      "inputId": 1
    },
    {
      "color": "#0986ad",
      "outputModuleId": 14,
      "outputId": 2,
      "inputModuleId": 15,
      "inputId": 2
    },
    {
      "color": "#0c8e15",
      "outputModuleId": 15,
      "outputId": 1,
      "inputModuleId": 17,
      "inputId": 2
    },
    {
      "color": "#0986ad",
      "outputModuleId": 17,
      "outputId": 0,
      "inputModuleId": 2,
      "inputId": 0
    }
  ]
}