{
  "version": "0.6.2b",
  "modules": [
    {
      "plugin": "Core",
      "version": "0.6.2b",
      "model": "AudioInterface",
      "params": [],
      "data": {
        "audio": {
          "driver": 5,
          "deviceName": "Apple Inc.: Built-in Output",
          "offset": 0,
          "maxChannels": 8,
          "sampleRate": 44100,
          "blockSize": 256
        }
      },
      "pos": [
        68,
        0
      ]
    },
    {
      "plugin": "Valley",
      "version": "0.6.6",
      "model": "Plateau",
      "params": [
        {
          "paramId": 0,
          "value": 1.0
        },
        {
          "paramId": 1,
          "value": 0.5
        },
        {
          "paramId": 2,
          "value": 0.0
        },
        {
          "paramId": 3,
          "value": 10.0
        },
        {
          "paramId": 4,
          "value": 10.0
        },
        {
          "paramId": 5,
          "value": 0.5
        },
        {
          "paramId": 6,
          "value": 10.0
        },
        {
          "paramId": 7,
          "value": 0.549950004
        },
        {
          "paramId": 9,
          "value": 10.0
        },
        {
          "paramId": 8,
          "value": 10.0
        },
        {
          "paramId": 10,
          "value": 0.0
        },
        {
          "paramId": 12,
          "value": 0.5
        },
        {
          "paramId": 11,
          "value": 0.5
        },
        {
          "paramId": 17,
          "value": 0.0
        },
        {
          "paramId": 18,
          "value": 0.0
        },
        {
          "paramId": 19,
          "value": 0.0
        },
        {
          "paramId": 20,
          "value": 0.0
        },
        {
          "paramId": 21,
          "value": 0.0
        },
        {
          "paramId": 22,
          "value": 0.0
        },
        {
          "paramId": 23,
          "value": 0.0
        },
        {
          "paramId": 25,
          "value": 0.0
        },
        {
          "paramId": 24,
          "value": 0.0
        },
        {
          "paramId": 26,
          "value": 0.0
        },
        {
          "paramId": 28,
          "value": 0.0
        },
        {
          "paramId": 27,
          "value": 0.0
        },
        {
          "paramId": 13,
          "value": 0.0
        },
        {
          "paramId": 15,
          "value": 0.0
        },
        {
          "paramId": 14,
          "value": 0.0
        },
        {
          "paramId": 29,
          "value": 0.0
        },
        {
          "paramId": 30,
          "value": 0.0
        }
      ],
      "data": {
        "frozen": false,
        "freezeToggle": false,
        "panelStyle": 0,
        "tuned": 0,
        "diffuseInput": 1,
        "preDelayCVSens": 0
      },
      "pos": [
        65,
        1
      ]
    },
    {
      "plugin": "VultModulesFree",
      "version": "0.6.16",
      "model": "Vessek",
      "params": [
        {
          "paramId": 0,
          "value": 0.0
        },
        {
          "paramId": 1,
          "value": -1.0
        },
        {
          "paramId": 2,
          "value": -1.0
        },
        {
          "paramId": 3,
          "value": -0.879999995
        },
        {
          "paramId": 4,
          "value": 1.0
        },
        {
          "paramId": 5,
          "value": 0.0
        },
        {
          "paramId": 6,
          "value": -1.0
        },
        {
          "paramId": 7,
          "value": -1.0
        },
        {
          "paramId": 8,
          "value": -1.0
        },
        {
          "paramId": 9,
          "value": 0.0
        },
        {
          "paramId": 10,
          "value": 0.5
        },
        {
          "paramId": 11,
          "value": 0.0180000011
        },
        {
          "paramId": 12,
          "value": 0.0449999906
        },
        {
          "paramId": 13,
          "value": 0.334499955
        },
        {
          "paramId": 15,
          "value": 0.0
        },
        {
          "paramId": 16,
          "value": 0.0
        },
        {
          "paramId": 17,
          "value": 0.00600005127
        },
        {
          "paramId": 18,
          "value": 0.0
        },
        {
          "paramId": 14,
          "value": 0.330000043
        },
        {
          "paramId": 21,
          "value": 0.666000068
        },
        {
          "paramId": 22,
          "value": 0.777000368
        },
        {
          "paramId": 23,
          "value": 0.0
        },
        {
          "paramId": 24,
          "value": 0.0
        },
        {
          "paramId": 25,
          "value": 0.0
        },
        {
          "paramId": 26,
          "value": 0.0
        },
        {
          "paramId": 27,
          "value": 0.0
        },
        {
          "paramId": 28,
          "value": 0.0
        },
        {
          "paramId": 29,
          "value": 0.0
        },
        {
          "paramId": 30,
          "value": 0.0
        },
        {
          "paramId": 31,
          "value": 0.0
        },
        {
          "paramId": 32,
          "value": 0.0
        },
        {
          "paramId": 33,
          "value": -1.0
        }
      ],
      "data": {
        "mod_a": 1,
        "mod_b": 3,
        "mod_c": 0,
        "mod_d": 0,
        "mod_e": 0,
        "mod_f": 0
      },
      "pos": [
        34,
        0
      ]
    },
    {
      "plugin": "VultModulesFree",
      "version": "0.6.16",
      "model": "UtilKnobs",
      "params": [
        {
          "paramId": 0,
          "value": 0.628500283
        },
        {
          "paramId": 1,
          "value": 0.0
        },
        {
          "paramId": 2,
          "value": 0.339000016
        },
        {
          "paramId": 3,
          "value": 0.189000294
        },
        {
          "paramId": 4,
          "value": 0.0
        },
        {
          "paramId": 5,
          "value": 2.0
        },
        {
          "paramId": 6,
          "value": 0.609499633
        },
        {
          "paramId": 7,
          "value": 0.0
        },
        {
          "paramId": 8,
          "value": 0.650999784
        },
        {
          "paramId": 9,
          "value": 0.0
        },
        {
          "paramId": 10,
          "value": 0.0390000008
        },
        {
          "paramId": 11,
          "value": 2.0
        }
      ],
      "pos": [
        57,
        1
      ]
    },
    {
      "plugin": "VultModulesFree",
      "version": "0.6.16",
      "model": "Caudal",
      "params": [
        {
          "paramId": 0,
          "value": 0.994000018
        },
        {
          "paramId": 1,
          "value": 0.674999833
        },
        {
          "paramId": 2,
          "value": 0.0
        },
        {
          "paramId": 3,
          "value": 0.0
        },
        {
          "paramId": 4,
          "value": 0.0
        },
        {
          "paramId": 5,
          "value": 0.0
        },
        {
          "paramId": 6,
          "value": 0.0
        },
        {
          "paramId": 7,
          "value": 0.0
        }
      ],
      "data": {
        "phi1": -1.98114944,
        "phi2": 1.0623008,
        "phi3": 1.13117588,
        "phi4": -5.24656296,
        "w1": 22.2469082,
        "w2": -5.51921988,
        "w3": 31.1067581,
        "w4": -14.9096575,
        "store_phi1": -0.516650498,
        "store_phi2": 0.624557793,
        "store_phi3": 0.63062501,
        "store_phi4": -2.04296827,
        "store_w1": 3.93972564,
        "store_w2": 3.73051977,
        "store_w3": -22.7365913,
        "store_w4": -46.8904419
      },
      "pos": [
        0,
        1
      ]
    },
    {
      "plugin": "JW-Modules",
      "version": "0.6.3",
      "model": "FullScope",
      "params": [
        {
          "paramId": 1,
          "value": 0.0
        },
        {
          "paramId": 3,
          "value": 0.0
        },
        {
          "paramId": 0,
          "value": 1.0
        },
        {
          "paramId": 2,
          "value": 1.0
        },
        {
          "paramId": 8,
          "value": 0.0
        },
        {
          "paramId": 4,
          "value": -11.7949915
        }
      ],
      "data": {
        "lissajous": 1,
        "external": 0
      },
      "width": 255.0,
      "height": 380.0,
      "pos": [
        10,
        1
      ]
    },
    {
      "plugin": "VultModulesFree",
      "version": "0.6.16",
      "model": "Lateralus",
      "params": [
        {
          "paramId": 0,
          "value": 0.743002057
        },
        {
          "paramId": 1,
          "value": 0.699000537
        },
        {
          "paramId": 2,
          "value": 0.371999979
        },
        {
          "paramId": 3,
          "value": 0.366000295
        },
        {
          "paramId": 4,
          "value": 1.05600011
        },
        {
          "paramId": 5,
          "value": 0.0
        }
      ],
      "pos": [
        27,
        1
      ]
    },
    {
      "plugin": "VultModulesFree",
      "version": "0.6.16",
      "model": "Caudal",
      "params": [
        {
          "paramId": 0,
          "value": 0.76000011
        },
        {
          "paramId": 1,
          "value": 0.854999781
        },
        {
          "paramId": 2,
          "value": 0.0
        },
        {
          "paramId": 3,
          "value": 0.0
        },
        {
          "paramId": 4,
          "value": 0.0
        },
        {
          "paramId": 5,
          "value": 0.0
        },
        {
          "paramId": 6,
          "value": 0.0
        },
        {
          "paramId": 7,
          "value": 0.0
        }
      ],
      "data": {
        "phi1": 3.76431966,
        "phi2": 4.32013226,
        "phi3": 4.20495129,
        "phi4": -1.9995544,
        "w1": -0.917100906,
        "w2": 41.988678,
        "w3": -21.5029087,
        "w4": -37.6763611,
        "store_phi1": -2.17219806,
        "store_phi2": -1.22206104,
        "store_phi3": 1.92387164,
        "store_phi4": 5.13593102,
        "store_w1": -13.0491047,
        "store_w2": 16.2494125,
        "store_w3": -15.3568344,
        "store_w4": -9.7238245
      },
      "pos": [
        0,
        0
      ]
    },
    {
      "plugin": "JW-Modules",
      "version": "0.6.3",
      "model": "SimpleClock",
      "params": [
        {
          "paramId": 1,
          "value": 0.0
        },
        {
          "paramId": 0,
          "value": 1.74400055
        },
        {
          "paramId": 3,
          "value": 0.0
        },
        {
          "paramId": 2,
          "value": -2.0
        }
      ],
      "data": {
        "running": true
      },
      "pos": [
        30,
        0
      ]
    },
    {
      "plugin": "VultModulesFree",
      "version": "0.6.16",
      "model": "UtilBypass",
      "params": [
        {
          "paramId": 0,
          "value": 0.0
        },
        {
          "paramId": 1,
          "value": 1.0
        }
      ],
      "data": {
        "state": true
      },
      "pos": [
        54,
        0
      ]
    },
    {
      "plugin": "VultModulesFree",
      "version": "0.6.16",
      "model": "Flux",
      "params": [
        {
          "paramId": 1,
          "value": 0.38599962
        },
        {
          "paramId": 6,
          "value": 0.5
        },
        {
          "paramId": 11,
          "value": 0.5
        },
        {
          "paramId": 16,
          "value": 0.5
        },
        {
          "paramId": 2,
          "value": 0.18599999
        },
        {
          "paramId": 7,
          "value": 0.0
        },
        {
          "paramId": 12,
          "value": 0.0
        },
        {
          "paramId": 17,
          "value": 0.0
        },
        {
          "paramId": 4,
          "value": 0.0449999943
        },
        {
          "paramId": 9,
          "value": 0.0419999957
        },
        {
          "paramId": 14,
          "value": 0.0
        },
        {
          "paramId": 19,
          "value": 0.0
        },
        {
          "paramId": 0,
          "value": 0.0
        },
        {
          "paramId": 5,
          "value": 0.0
        },
        {
          "paramId": 10,
          "value": 0.0
        },
        {
          "paramId": 15,
          "value": 0.0
        },
        {
          "paramId": 3,
          "value": 0.0
        },
        {
          "paramId": 8,
          "value": 1.0
        },
        {
          "paramId": 13,
          "value": 0.0
        },
        {
          "paramId": 18,
          "value": 0.0
        },
        {
          "paramId": 21,
          "value": 0.0
        },
        {
          "paramId": 22,
          "value": 0.0
        },
        {
          "paramId": 23,
          "value": 0.0
        },
        {
          "paramId": 24,
          "value": 0.0
        },
        {
          "paramId": 25,
          "value": 0.0
        },
        {
          "paramId": 26,
          "value": 0.0
        },
        {
          "paramId": 27,
          "value": 0.0
        },
        {
          "paramId": 28,
          "value": 0.0
        },
        {
          "paramId": 29,
          "value": 0.0
        },
        {
          "paramId": 30,
          "value": 0.0
        },
        {
          "paramId": 31,
          "value": 0.0
        },
        {
          "paramId": 32,
          "value": 0.0
        }
      ],
      "data": {
        "mod_a": 0,
        "mod_b": 0,
        "mod_c": 0,
        "mod_d": 0,
        "mod_e": 0,
        "mod_f": 0
      },
      "pos": [
        10,
        0
      ]
    },
    {
      "plugin": "VultModulesFree",
      "version": "0.6.16",
      "model": "Lateralus",
      "params": [
        {
          "paramId": 0,
          "value": 0.487999976
        },
        {
          "paramId": 1,
          "value": 0.245999992
        },
        {
          "paramId": 2,
          "value": 0.91200012
        },
        {
          "paramId": 3,
          "value": 0.594000101
        },
        {
          "paramId": 4,
          "value": 0.584999919
        },
        {
          "paramId": 5,
          "value": 0.288000107
        }
      ],
      "pos": [
        58,
        0
      ]
    },
    {
      "plugin": "VultModulesFree",
      "version": "0.6.16",
      "model": "Vessek",
      "params": [
        {
          "paramId": 0,
          "value": 0.0
        },
        {
          "paramId": 1,
          "value": 0.255000502
        },
        {
          "paramId": 2,
          "value": 0.443999916
        },
        {
          "paramId": 3,
          "value": -0.437999755
        },
        {
          "paramId": 4,
          "value": 2.0
        },
        {
          "paramId": 5,
          "value": 0.0
        },
        {
          "paramId": 6,
          "value": 0.167999998
        },
        {
          "paramId": 7,
          "value": 0.624000192
        },
        {
          "paramId": 8,
          "value": 0.651000023
        },
        {
          "paramId": 9,
          "value": 2.0
        },
        {
          "paramId": 10,
          "value": 0.5
        },
        {
          "paramId": 11,
          "value": 0.154499963
        },
        {
          "paramId": 12,
          "value": 0.0705000088
        },
        {
          "paramId": 13,
          "value": 0.324000001
        },
        {
          "paramId": 15,
          "value": 0.547500193
        },
        {
          "paramId": 16,
          "value": 0.308999956
        },
        {
          "paramId": 17,
          "value": 0.0
        },
        {
          "paramId": 18,
          "value": 0.0
        },
        {
          "paramId": 14,
          "value": 0.0
        },
        {
          "paramId": 21,
          "value": 0.0
        },
        {
          "paramId": 22,
          "value": 0.0
        },
        {
          "paramId": 23,
          "value": 0.0
        },
        {
          "paramId": 24,
          "value": 0.0
        },
        {
          "paramId": 25,
          "value": 0.0
        },
        {
          "paramId": 26,
          "value": 0.0
        },
        {
          "paramId": 27,
          "value": 0.0
        },
        {
          "paramId": 28,
          "value": 0.0
        },
        {
          "paramId": 29,
          "value": 0.0
        },
        {
          "paramId": 30,
          "value": 0.0
        },
        {
          "paramId": 31,
          "value": 0.0
        },
        {
          "paramId": 32,
          "value": 0.0
        },
        {
          "paramId": 33,
          "value": 0.0
        }
      ],
      "data": {
        "mod_a": 0,
        "mod_b": 0,
        "mod_c": 0,
        "mod_d": 0,
        "mod_e": 0,
        "mod_f": 0
      },
      "pos": [
        0,
        2
      ]
    },
    {
      "plugin": "VultModulesFree",
      "version": "0.6.16",
      "model": "Rescomb",
      "params": [
        {
          "paramId": 0,
          "value": 0.0
        },
        {
          "paramId": 1,
          "value": 0.669000149
        },
        {
          "paramId": 2,
          "value": 0.749097943
        },
        {
          "paramId": 3,
          "value": 0.0
        },
        {
          "paramId": 4,
          "value": 0.0
        }
      ],
      "pos": [
        40,
        2
      ]
    },
    {
      "plugin": "VultModulesFree",
      "version": "0.6.16",
      "model": "Lateralus",
      "params": [
        {
          "paramId": 0,
          "value": 0.530000746
        },
        {
          "paramId": 1,
          "value": 0.687000096
        },
        {
          "paramId": 2,
          "value": 0.452999979
        },
        {
          "paramId": 3,
          "value": 0.0
        },
        {
          "paramId": 4,
          "value": 1.22700024
        },
        {
          "paramId": 5,
          "value": 0.0
        }
      ],
      "pos": [
        30,
        2
      ]
    },
    {
      "plugin": "VultModulesFree",
      "version": "0.6.16",
      "model": "Unstabile",
      "params": [
        {
          "paramId": 0,
          "value": 0.70100075
        },
        {
          "paramId": 1,
          "value": 0.388500184
        },
        {
          "paramId": 2,
          "value": 0.0
        },
        {
          "paramId": 3,
          "value": 0.0
        },
        {
          "paramId": 4,
          "value": 0.802999854
        },
        {
          "paramId": 5,
          "value": 0.0
        },
        {
          "paramId": 6,
          "value": 1.04400003
        },
        {
          "paramId": 7,
          "value": 0.0
        }
      ],
      "pos": [
        20,
        2
      ]
    },
    {
      "plugin": "VultModulesFree",
      "version": "0.6.16",
      "model": "Trummor2",
      "params": [
        {
          "paramId": 0,
          "value": 0.0500000007
        },
        {
          "paramId": 1,
          "value": 0.475999832
        },
        {
          "paramId": 2,
          "value": 0.0885000005
        },
        {
          "paramId": 5,
          "value": 0.525000095
        },
        {
          "paramId": 3,
          "value": 0.132000014
        },
        {
          "paramId": 4,
          "value": 0.0645000041
        },
        {
          "paramId": 6,
          "value": 0.026999997
        },
        {
          "paramId": 7,
          "value": 0.200000003
        },
        {
          "paramId": 8,
          "value": 0.400000006
        },
        {
          "paramId": 9,
          "value": 0.0
        },
        {
          "paramId": 10,
          "value": 0.0
        },
        {
          "paramId": 11,
          "value": 0.699999988
        },
        {
          "paramId": 23,
          "value": 0.19599992
        },
        {
          "paramId": 12,
          "value": 0.204500049
        },
        {
          "paramId": 14,
          "value": 0.0359999947
        },
        {
          "paramId": 13,
          "value": 0.504000008
        },
        {
          "paramId": 15,
          "value": 0.86877501
        },
        {
          "paramId": 16,
          "value": 0.196500033
        },
        {
          "paramId": 18,
          "value": 0.0270000007
        },
        {
          "paramId": 19,
          "value": 0.0500000007
        },
        {
          "paramId": 20,
          "value": 0.0500000007
        },
        {
          "paramId": 17,
          "value": 0.0
        },
        {
          "paramId": 22,
          "value": 0.0
        },
        {
          "paramId": 21,
          "value": 0.0
        },
        {
          "paramId": 25,
          "value": 0.0
        },
        {
          "paramId": 26,
          "value": 0.0
        },
        {
          "paramId": 27,
          "value": 0.0
        },
        {
          "paramId": 28,
          "value": 0.0
        },
        {
          "paramId": 29,
          "value": 0.0
        },
        {
          "paramId": 30,
          "value": 0.0
        },
        {
          "paramId": 31,
          "value": 0.0
        },
        {
          "paramId": 32,
          "value": 0.0
        }
      ],
      "data": {
        "mod_a": 0,
        "mod_b": 0,
        "mod_c": 0,
        "mod_d": 0
      },
      "pos": [
        37,
        1
      ]
    }
  ],
  "wires": [
    {
      "color": "#c91847",
      "outputModuleId": 1,
      "outputId": 0,
      "inputModuleId": 0,
      "inputId": 0
    },
    {
      "color": "#0c8e15",
      "outputModuleId": 1,
      "outputId": 1,
      "inputModuleId": 0,
      "inputId": 1
    },
    {
      "color": "#c9b70e",
      "outputModuleId": 2,
      "outputId": 0,
      "inputModuleId": 9,
      "inputId": 1
    },
    {
      "color": "#0c8e15",
      "outputModuleId": 3,
      "outputId": 0,
      "inputModuleId": 1,
      "inputId": 0
    },
    {
      "color": "#0986ad",
      "outputModuleId": 3,
      "outputId": 1,
      "inputModuleId": 1,
      "inputId": 1
    },
    {
      "color": "#c9b70e",
      "outputModuleId": 4,
      "outputId": 9,
      "inputModuleId": 5,
      "inputId": 0
    },
    {
      "color": "#c91847",
      "outputModuleId": 4,
      "outputId": 10,
      "inputModuleId": 5,
      "inputId": 1
    },
    {
      "color": "#0986ad",
      "outputModuleId": 4,
      "outputId": 9,
      "inputModuleId": 6,
      "inputId": 0
    },
    {
      "color": "#0986ad",
      "outputModuleId": 6,
      "outputId": 3,
      "inputModuleId": 3,
      "inputId": 1
    },
    {
      "color": "#c9b70e",
      "outputModuleId": 6,
      "outputId": 1,
      "inputModuleId": 3,
      "inputId": 5
    },
    {
      "color": "#0c8e15",
      "outputModuleId": 7,
      "outputId": 9,
      "inputModuleId": 6,
      "inputId": 2
    },
    {
      "color": "#0986ad",
      "outputModuleId": 7,
      "outputId": 10,
      "inputModuleId": 6,
      "inputId": 1
    },
    {
      "color": "#c9b70e",
      "outputModuleId": 9,
      "outputId": 2,
      "inputModuleId": 11,
      "inputId": 0
    },
    {
      "color": "#0c8e15",
      "outputModuleId": 4,
      "outputId": 9,
      "inputModuleId": 2,
      "inputId": 2
    },
    {
      "color": "#c9b70e",
      "outputModuleId": 9,
      "outputId": 3,
      "inputModuleId": 3,
      "inputId": 2
    },
    {
      "color": "#0c8e15",
      "outputModuleId": 10,
      "outputId": 0,
      "inputModuleId": 9,
      "inputId": 0
    },
    {
      "color": "#c9b70e",
      "outputModuleId": 8,
      "outputId": 0,
      "inputModuleId": 10,
      "inputId": 14
    },
    {
      "color": "#c91847",
      "outputModuleId": 7,
      "outputId": 9,
      "inputModuleId": 10,
      "inputId": 0
    },
    {
      "color": "#0c8e15",
      "outputModuleId": 7,
      "outputId": 9,
      "inputModuleId": 2,
      "inputId": 3
    },
    {
      "color": "#0986ad",
      "outputModuleId": 11,
      "outputId": 0,
      "inputModuleId": 3,
      "inputId": 4
    },
    {
      "color": "#c9b70e",
      "outputModuleId": 11,
      "outputId": 0,
      "inputModuleId": 3,
      "inputId": 0
    },
    {
      "color": "#0c8e15",
      "outputModuleId": 7,
      "outputId": 6,
      "inputModuleId": 10,
      "inputId": 1
    },
    {
      "color": "#0986ad",
      "outputModuleId": 10,
      "outputId": 1,
      "inputModuleId": 11,
      "inputId": 1
    },
    {
      "color": "#c9b70e",
      "outputModuleId": 10,
      "outputId": 1,
      "inputModuleId": 11,
      "inputId": 2
    },
    {
      "color": "#c91847",
      "outputModuleId": 10,
      "outputId": 0,
      "inputModuleId": 11,
      "inputId": 3
    },
    {
      "color": "#0c8e15",
      "outputModuleId": 14,
      "outputId": 3,
      "inputModuleId": 13,
      "inputId": 1
    },
    {
      "color": "#0986ad",
      "outputModuleId": 14,
      "outputId": 1,
      "inputModuleId": 13,
      "inputId": 4
    },
    {
      "color": "#c9b70e",
      "outputModuleId": 13,
      "outputId": 0,
      "inputModuleId": 3,
      "inputId": 3
    },
    {
      "color": "#c91847",
      "outputModuleId": 13,
      "outputId": 1,
      "inputModuleId": 3,
      "inputId": 7
    },
    {
      "color": "#0986ad",
      "outputModuleId": 12,
      "outputId": 0,
      "inputModuleId": 15,
      "inputId": 0
    },
    {
      "color": "#c9b70e",
      "outputModuleId": 15,
      "outputId": 3,
      "inputModuleId": 14,
      "inputId": 0
    },
    {
      "color": "#0c8e15",
      "outputModuleId": 10,
      "outputId": 1,
      "inputModuleId": 12,
      "inputId": 0
    },
    {
      "color": "#0986ad",
      "outputModuleId": 7,
      "outputId": 11,
      "inputModuleId": 10,
      "inputId": 2
    },
    {
      "color": "#c9b70e",
      "outputModuleId": 10,
      "outputId": 2,
      "inputModuleId": 14,
      "inputId": 1
    },
    {
      "color": "#c91847",
      "outputModuleId": 10,
      "outputId": 1,
      "inputModuleId": 13,
      "inputId": 0
    },
    {
      "color": "#0c8e15",
      "outputModuleId": 8,
      "outputId": 2,
      "inputModuleId": 16,
      "inputId": 0
    },
    {
      "color": "#0986ad",
      "outputModuleId": 16,
      "outputId": 0,
      "inputModuleId": 9,
      "inputId": 2
    },
    {
      "color": "#c9b70e",
      "outputModuleId": 16,
      "outputId": 0,
      "inputModuleId": 3,
      "inputId": 6
    },
    {
      "color": "#0c8e15",
      "outputModuleId": 7,
      "outputId": 7,
      "inputModuleId": 2,
      "inputId": 4
    }
  ]
}