{
  "version": "0.6.2b",
  "modules": [
    {
      "plugin": "Core",
      "version": "0.6.2b",
      "model": "AudioInterface",
      "params": [],
      "data": {
        "audio": {
          "driver": 5,
          "deviceName": "Apple Inc.: Built-in Output",
          "offset": 0,
          "maxChannels": 8,
          "sampleRate": 44100,
          "blockSize": 4096
        }
      },
      "pos": [
        136,
        2
      ]
    },
    {
      "plugin": "ImpromptuModular",
      "version": "0.6.10",
      "model": "Clocked",
      "params": [
        {
          "paramId": 0,
          "value": 140.0
        },
        {
          "paramId": 12,
          "value": 0.0
        },
        {
          "paramId": 13,
          "value": 0.0
        },
        {
          "paramId": 18,
          "value": 0.0
        },
        {
          "paramId": 4,
          "value": 0.0
        },
        {
          "paramId": 8,
          "value": 0.5
        },
        {
          "paramId": 1,
          "value": 0.0
        },
        {
          "paramId": 5,
          "value": 0.0
        },
        {
          "paramId": 9,
          "value": 0.5
        },
        {
          "paramId": 15,
          "value": 0.0
        },
        {
          "paramId": 2,
          "value": 0.0
        },
        {
          "paramId": 6,
          "value": 0.0
        },
        {
          "paramId": 10,
          "value": 0.5
        },
        {
          "paramId": 16,
          "value": 0.0
        },
        {
          "paramId": 3,
          "value": 0.0
        },
        {
          "paramId": 7,
          "value": 0.0
        },
        {
          "paramId": 11,
          "value": 0.5
        },
        {
          "paramId": 17,
          "value": 0.0
        }
      ],
      "data": {
        "running": true,
        "panelTheme": 1,
        "expansion": 0,
        "displayDelayNoteMode": true,
        "bpmDetectionMode": false,
        "emitResetOnStopRun": false,
        "ppqn": 4
      },
      "pos": [
        20,
        2
      ]
    },
    {
      "plugin": "cf",
      "version": "0.6.1",
      "model": "MASTER",
      "params": [
        {
          "paramId": 0,
          "value": 1.75999808
        },
        {
          "paramId": 1,
          "value": 0.0
        }
      ],
      "data": {
        "onstate": 1
      },
      "pos": [
        109,
        2
      ]
    },
    {
      "plugin": "Valley",
      "version": "0.6.5",
      "model": "Plateau",
      "params": [
        {
          "paramId": 0,
          "value": 1.0
        },
        {
          "paramId": 1,
          "value": 0.349999994
        },
        {
          "paramId": 2,
          "value": 0.0
        },
        {
          "paramId": 3,
          "value": 10.0
        },
        {
          "paramId": 4,
          "value": 10.0
        },
        {
          "paramId": 5,
          "value": 0.382999986
        },
        {
          "paramId": 6,
          "value": 10.0
        },
        {
          "paramId": 7,
          "value": 0.432513148
        },
        {
          "paramId": 9,
          "value": 10.0
        },
        {
          "paramId": 8,
          "value": 10.0
        },
        {
          "paramId": 10,
          "value": 0.0389998294
        },
        {
          "paramId": 12,
          "value": 2.66000152
        },
        {
          "paramId": 11,
          "value": 0.5
        },
        {
          "paramId": 17,
          "value": 1.0
        },
        {
          "paramId": 18,
          "value": 1.0
        },
        {
          "paramId": 19,
          "value": 1.0
        },
        {
          "paramId": 20,
          "value": 1.0
        },
        {
          "paramId": 21,
          "value": 1.0
        },
        {
          "paramId": 22,
          "value": 1.0
        },
        {
          "paramId": 23,
          "value": 1.0
        },
        {
          "paramId": 25,
          "value": 1.0
        },
        {
          "paramId": 24,
          "value": 1.0
        },
        {
          "paramId": 26,
          "value": 1.0
        },
        {
          "paramId": 28,
          "value": 1.0
        },
        {
          "paramId": 27,
          "value": 1.0
        },
        {
          "paramId": 13,
          "value": 0.0
        },
        {
          "paramId": 15,
          "value": 0.0
        },
        {
          "paramId": 14,
          "value": 0.0
        },
        {
          "paramId": 29,
          "value": 0.0
        },
        {
          "paramId": 30,
          "value": 0.0
        }
      ],
      "data": {
        "frozen": false,
        "freezeToggle": false,
        "panelStyle": 0,
        "tuned": 0,
        "diffuseInput": 1
      },
      "pos": [
        97,
        2
      ]
    },
    {
      "plugin": "Geodesics",
      "version": "0.6.3",
      "model": "Branes",
      "params": [
        {
          "paramId": 0,
          "value": 0.0
        },
        {
          "paramId": 1,
          "value": 0.0
        }
      ],
      "data": {
        "trigBypass0": 0.0,
        "trigBypass1": 0.0,
        "panelTheme": 0
      },
      "pos": [
        40,
        2
      ]
    },
    {
      "plugin": "Bogaudio",
      "version": "0.6.7",
      "model": "Bogaudio-FMOp",
      "params": [
        {
          "paramId": 0,
          "value": 0.0
        },
        {
          "paramId": 1,
          "value": -0.0479999967
        },
        {
          "paramId": 2,
          "value": 0.0599999875
        },
        {
          "paramId": 3,
          "value": 0.220229939
        },
        {
          "paramId": 4,
          "value": 1.0
        },
        {
          "paramId": 5,
          "value": 0.206730038
        },
        {
          "paramId": 6,
          "value": 0.0
        },
        {
          "paramId": 7,
          "value": 0.484500051
        },
        {
          "paramId": 8,
          "value": 1.0
        },
        {
          "paramId": 9,
          "value": 1.0
        },
        {
          "paramId": 10,
          "value": 0.0
        },
        {
          "paramId": 11,
          "value": 0.0
        }
      ],
      "data": {
        "linearLevel": false
      },
      "pos": [
        64,
        2
      ]
    },
    {
      "plugin": "Bogaudio",
      "version": "0.6.7",
      "model": "Bogaudio-FMOp",
      "params": [
        {
          "paramId": 0,
          "value": 0.0
        },
        {
          "paramId": 1,
          "value": 0.0120000001
        },
        {
          "paramId": 2,
          "value": 0.0734999999
        },
        {
          "paramId": 3,
          "value": 0.220229983
        },
        {
          "paramId": 4,
          "value": 1.0
        },
        {
          "paramId": 5,
          "value": 0.226229995
        },
        {
          "paramId": 6,
          "value": 0.0
        },
        {
          "paramId": 7,
          "value": 0.447000027
        },
        {
          "paramId": 8,
          "value": 1.0
        },
        {
          "paramId": 9,
          "value": 1.0
        },
        {
          "paramId": 10,
          "value": 0.0
        },
        {
          "paramId": 11,
          "value": 0.0
        }
      ],
      "data": {
        "linearLevel": false
      },
      "pos": [
        74,
        2
      ]
    },
    {
      "plugin": "JW-Modules",
      "version": "0.6.2",
      "model": "Quantizer",
      "params": [
        {
          "paramId": 0,
          "value": 0.0
        },
        {
          "paramId": 1,
          "value": 11.0
        }
      ],
      "data": {},
      "pos": [
        56,
        2
      ]
    },
    {
      "plugin": "JW-Modules",
      "version": "0.6.2",
      "model": "Quantizer",
      "params": [
        {
          "paramId": 0,
          "value": 0.0
        },
        {
          "paramId": 1,
          "value": 11.0
        }
      ],
      "data": {},
      "pos": [
        60,
        2
      ]
    },
    {
      "plugin": "Befaco",
      "version": "0.6.0",
      "model": "DualAtenuverter",
      "params": [
        {
          "paramId": 0,
          "value": 0.570000172
        },
        {
          "paramId": 1,
          "value": 0.0
        },
        {
          "paramId": 2,
          "value": 0.210000008
        },
        {
          "paramId": 3,
          "value": 0.0
        }
      ],
      "pos": [
        51,
        2
      ]
    },
    {
      "plugin": "Fundamental",
      "version": "0.6.2",
      "model": "Scope",
      "params": [
        {
          "paramId": 0,
          "value": 2.0
        },
        {
          "paramId": 1,
          "value": 0.0
        },
        {
          "paramId": 2,
          "value": 2.0
        },
        {
          "paramId": 3,
          "value": 0.0
        },
        {
          "paramId": 4,
          "value": -6.0
        },
        {
          "paramId": 5,
          "value": 0.0
        },
        {
          "paramId": 6,
          "value": 0.0
        },
        {
          "paramId": 7,
          "value": 0.0
        }
      ],
      "data": {
        "lissajous": 0,
        "external": 0
      },
      "pos": [
        84,
        2
      ]
    }
  ],
  "wires": [
    {
      "color": "#0986ad",
      "outputModuleId": 2,
      "outputId": 2,
      "inputModuleId": 0,
      "inputId": 0
    },
    {
      "color": "#c9b70e",
      "outputModuleId": 2,
      "outputId": 3,
      "inputModuleId": 0,
      "inputId": 1
    },
    {
      "color": "#0986ad",
      "outputModuleId": 3,
      "outputId": 0,
      "inputModuleId": 2,
      "inputId": 2
    },
    {
      "color": "#c9b70e",
      "outputModuleId": 3,
      "outputId": 1,
      "inputModuleId": 2,
      "inputId": 3
    },
    {
      "color": "#c91847",
      "outputModuleId": 1,
      "outputId": 0,
      "inputModuleId": 4,
      "inputId": 14
    },
    {
      "color": "#0986ad",
      "outputModuleId": 4,
      "outputId": 4,
      "inputModuleId": 9,
      "inputId": 0
    },
    {
      "color": "#c9b70e",
      "outputModuleId": 4,
      "outputId": 2,
      "inputModuleId": 9,
      "inputId": 1
    },
    {
      "color": "#c91847",
      "outputModuleId": 9,
      "outputId": 0,
      "inputModuleId": 7,
      "inputId": 2
    },
    {
      "color": "#0c8e15",
      "outputModuleId": 7,
      "outputId": 0,
      "inputModuleId": 5,
      "inputId": 4
    },
    {
      "color": "#0986ad",
      "outputModuleId": 9,
      "outputId": 1,
      "inputModuleId": 8,
      "inputId": 2
    },
    {
      "color": "#c9b70e",
      "outputModuleId": 8,
      "outputId": 0,
      "inputModuleId": 6,
      "inputId": 4
    },
    {
      "color": "#c91847",
      "outputModuleId": 1,
      "outputId": 1,
      "inputModuleId": 5,
      "inputId": 5
    },
    {
      "color": "#0c8e15",
      "outputModuleId": 1,
      "outputId": 2,
      "inputModuleId": 6,
      "inputId": 5
    },
    {
      "color": "#0986ad",
      "outputModuleId": 5,
      "outputId": 0,
      "inputModuleId": 3,
      "inputId": 0
    },
    {
      "color": "#c9b70e",
      "outputModuleId": 6,
      "outputId": 0,
      "inputModuleId": 3,
      "inputId": 1
    },
    {
      "color": "#c9b70e",
      "outputModuleId": 7,
      "outputId": 0,
      "inputModuleId": 10,
      "inputId": 0
    },
    {
      "color": "#0986ad",
      "outputModuleId": 8,
      "outputId": 0,
      "inputModuleId": 10,
      "inputId": 1
    },
    {
      "color": "#0c8e15",
      "outputModuleId": 4,
      "outputId": 6,
      "inputModuleId": 6,
      "inputId": 2
    },
    {
      "color": "#0986ad",
      "outputModuleId": 4,
      "outputId": 0,
      "inputModuleId": 5,
      "inputId": 2
    }
  ]
}