{
  "version": "0.6.2b",
  "modules": [
    {
      "plugin": "Core",
      "version": "0.6.2b",
      "model": "AudioInterface",
      "params": [],
      "data": {
        "audio": {
          "driver": 8,
          "deviceName": "Line (4- Steinberg UR242)",
          "offset": 0,
          "maxChannels": 8,
          "sampleRate": 44100,
          "blockSize": 4096
        }
      },
      "pos": [
        120,
        0
      ]
    },
    {
      "plugin": "ImpromptuModular",
      "version": "0.6.10",
      "model": "Clocked",
      "params": [
        {
          "paramId": 0,
          "value": 156.0
        },
        {
          "paramId": 12,
          "value": 0.0
        },
        {
          "paramId": 13,
          "value": 0.0
        },
        {
          "paramId": 18,
          "value": 0.0
        },
        {
          "paramId": 4,
          "value": 0.0
        },
        {
          "paramId": 8,
          "value": 0.5
        },
        {
          "paramId": 1,
          "value": 1.0
        },
        {
          "paramId": 5,
          "value": 0.0
        },
        {
          "paramId": 9,
          "value": 0.5
        },
        {
          "paramId": 15,
          "value": 0.0
        },
        {
          "paramId": 2,
          "value": 5.0
        },
        {
          "paramId": 6,
          "value": 0.0
        },
        {
          "paramId": 10,
          "value": 0.5
        },
        {
          "paramId": 16,
          "value": 0.0
        },
        {
          "paramId": 3,
          "value": -5.0
        },
        {
          "paramId": 7,
          "value": 0.0
        },
        {
          "paramId": 11,
          "value": 0.5
        },
        {
          "paramId": 17,
          "value": 0.0
        }
      ],
      "data": {
        "running": true,
        "panelTheme": 0,
        "expansion": 0,
        "displayDelayNoteMode": true,
        "bpmDetectionMode": false,
        "emitResetOnStopRun": false,
        "ppqn": 4
      },
      "pos": [
        14,
        2
      ]
    },
    {
      "plugin": "cf",
      "version": "0.6.0",
      "model": "MASTER",
      "params": [
        {
          "paramId": 0,
          "value": 3.25999975
        },
        {
          "paramId": 1,
          "value": 0.0
        }
      ],
      "data": {
        "onstate": 1
      },
      "pos": [
        108,
        0
      ]
    },
    {
      "plugin": "Valley",
      "version": "0.6.5",
      "model": "Plateau",
      "params": [
        {
          "paramId": 0,
          "value": 1.0
        },
        {
          "paramId": 1,
          "value": 0.326000035
        },
        {
          "paramId": 2,
          "value": 0.0
        },
        {
          "paramId": 3,
          "value": 7.97499943
        },
        {
          "paramId": 4,
          "value": 10.0
        },
        {
          "paramId": 5,
          "value": 0.5
        },
        {
          "paramId": 6,
          "value": 10.0
        },
        {
          "paramId": 7,
          "value": 0.377169162
        },
        {
          "paramId": 9,
          "value": 10.0
        },
        {
          "paramId": 8,
          "value": 10.0
        },
        {
          "paramId": 10,
          "value": 0.0
        },
        {
          "paramId": 12,
          "value": 3.06800008
        },
        {
          "paramId": 11,
          "value": 0.5
        },
        {
          "paramId": 17,
          "value": 1.0
        },
        {
          "paramId": 18,
          "value": 1.0
        },
        {
          "paramId": 19,
          "value": 1.0
        },
        {
          "paramId": 20,
          "value": 1.0
        },
        {
          "paramId": 21,
          "value": 1.0
        },
        {
          "paramId": 22,
          "value": 1.0
        },
        {
          "paramId": 23,
          "value": 1.0
        },
        {
          "paramId": 25,
          "value": 1.0
        },
        {
          "paramId": 24,
          "value": 1.0
        },
        {
          "paramId": 26,
          "value": 1.0
        },
        {
          "paramId": 28,
          "value": 1.0
        },
        {
          "paramId": 27,
          "value": 1.0
        },
        {
          "paramId": 13,
          "value": 0.0
        },
        {
          "paramId": 15,
          "value": 0.0
        },
        {
          "paramId": 14,
          "value": 0.0
        },
        {
          "paramId": 29,
          "value": 0.0
        },
        {
          "paramId": 30,
          "value": 0.0
        }
      ],
      "data": {
        "frozen": false,
        "freezeToggle": false,
        "panelStyle": 1,
        "tuned": 0,
        "diffuseInput": 1
      },
      "pos": [
        108,
        3
      ]
    },
    {
      "plugin": "Geodesics",
      "version": "0.6.2",
      "model": "Ions",
      "params": [
        {
          "paramId": 2,
          "value": 0.370534956
        },
        {
          "paramId": 3,
          "value": 0.972525835
        },
        {
          "paramId": 4,
          "value": 0.184126258
        },
        {
          "paramId": 5,
          "value": 0.139374316
        },
        {
          "paramId": 6,
          "value": 0.351759851
        },
        {
          "paramId": 7,
          "value": 0.141374707
        },
        {
          "paramId": 8,
          "value": 0.05950737
        },
        {
          "paramId": 9,
          "value": 0.29734385
        },
        {
          "paramId": 10,
          "value": 0.992820442
        },
        {
          "paramId": 11,
          "value": 0.518101871
        },
        {
          "paramId": 12,
          "value": 0.730567098
        },
        {
          "paramId": 13,
          "value": 0.894979477
        },
        {
          "paramId": 14,
          "value": 0.404866397
        },
        {
          "paramId": 15,
          "value": 0.491190016
        },
        {
          "paramId": 16,
          "value": 0.592226624
        },
        {
          "paramId": 17,
          "value": 0.814499855
        },
        {
          "paramId": 20,
          "value": 0.0
        },
        {
          "paramId": 23,
          "value": 0.0
        },
        {
          "paramId": 18,
          "value": 0.0
        },
        {
          "paramId": 19,
          "value": 0.0
        },
        {
          "paramId": 0,
          "value": 0.0
        },
        {
          "paramId": 1,
          "value": 0.0
        },
        {
          "paramId": 26,
          "value": 0.0
        },
        {
          "paramId": 25,
          "value": 0.0
        },
        {
          "paramId": 21,
          "value": 0.0
        },
        {
          "paramId": 22,
          "value": 0.0
        },
        {
          "paramId": 24,
          "value": 0.0
        }
      ],
      "data": {
        "panelTheme": 0,
        "resetOnRun": false,
        "quantize": 0,
        "uncertainty": true,
        "running": true,
        "stepIndexes0": 15,
        "stepIndexes1": 12,
        "states0": 1,
        "states1": 1,
        "ranges0": 1,
        "ranges1": 1,
        "leap": false
      },
      "pos": [
        37,
        2
      ]
    },
    {
      "plugin": "Soundmit",
      "version": "0.6.0",
      "model": "TWLV",
      "params": [
        {
          "paramId": 3,
          "value": 0.0
        },
        {
          "paramId": 4,
          "value": 0.0
        },
        {
          "paramId": 0,
          "value": 0.0
        },
        {
          "paramId": 1,
          "value": 0.0
        },
        {
          "paramId": 2,
          "value": 1.0
        },
        {
          "paramId": 5,
          "value": 0.482999951
        },
        {
          "paramId": 6,
          "value": 0.389999986
        },
        {
          "paramId": 7,
          "value": 0.233999982
        },
        {
          "paramId": 8,
          "value": 0.177000001
        },
        {
          "paramId": 9,
          "value": 0.105000019
        },
        {
          "paramId": 10,
          "value": 0.0
        },
        {
          "paramId": 11,
          "value": 0.0
        },
        {
          "paramId": 12,
          "value": 0.0
        },
        {
          "paramId": 13,
          "value": 0.0
        },
        {
          "paramId": 14,
          "value": 0.0
        },
        {
          "paramId": 15,
          "value": 0.0
        },
        {
          "paramId": 16,
          "value": 0.0
        },
        {
          "paramId": 17,
          "value": 1.0
        },
        {
          "paramId": 18,
          "value": 1.0
        },
        {
          "paramId": 19,
          "value": 1.0
        },
        {
          "paramId": 20,
          "value": 1.0
        },
        {
          "paramId": 21,
          "value": 1.0
        },
        {
          "paramId": 22,
          "value": 1.0
        },
        {
          "paramId": 23,
          "value": 1.0
        },
        {
          "paramId": 24,
          "value": 1.0
        },
        {
          "paramId": 25,
          "value": 1.0
        },
        {
          "paramId": 26,
          "value": 1.0
        },
        {
          "paramId": 27,
          "value": 1.0
        },
        {
          "paramId": 28,
          "value": 1.0
        }
      ],
      "data": {
        "wtype": 1
      },
      "pos": [
        14,
        3
      ]
    },
    {
      "plugin": "Geodesics",
      "version": "0.6.2",
      "model": "Ions",
      "params": [
        {
          "paramId": 2,
          "value": 0.5
        },
        {
          "paramId": 3,
          "value": 0.972525835
        },
        {
          "paramId": 4,
          "value": 0.184126258
        },
        {
          "paramId": 5,
          "value": 0.139374316
        },
        {
          "paramId": 6,
          "value": 0.351759851
        },
        {
          "paramId": 7,
          "value": 0.141374707
        },
        {
          "paramId": 8,
          "value": 0.05950737
        },
        {
          "paramId": 9,
          "value": 0.29734385
        },
        {
          "paramId": 10,
          "value": 0.992820442
        },
        {
          "paramId": 11,
          "value": 0.518101871
        },
        {
          "paramId": 12,
          "value": 0.730567098
        },
        {
          "paramId": 13,
          "value": 0.894979477
        },
        {
          "paramId": 14,
          "value": 0.404866397
        },
        {
          "paramId": 15,
          "value": 0.491190016
        },
        {
          "paramId": 16,
          "value": 0.592226624
        },
        {
          "paramId": 17,
          "value": 0.0
        },
        {
          "paramId": 20,
          "value": 0.0
        },
        {
          "paramId": 23,
          "value": 0.0
        },
        {
          "paramId": 18,
          "value": 0.0
        },
        {
          "paramId": 19,
          "value": 0.0
        },
        {
          "paramId": 0,
          "value": 0.0
        },
        {
          "paramId": 1,
          "value": 0.0
        },
        {
          "paramId": 26,
          "value": 0.0
        },
        {
          "paramId": 25,
          "value": 0.0
        },
        {
          "paramId": 21,
          "value": 0.0
        },
        {
          "paramId": 22,
          "value": 0.0
        },
        {
          "paramId": 24,
          "value": 0.0
        }
      ],
      "data": {
        "panelTheme": 0,
        "resetOnRun": false,
        "quantize": 0,
        "uncertainty": true,
        "running": true,
        "stepIndexes0": 9,
        "stepIndexes1": 1,
        "states0": 2,
        "states1": 1,
        "ranges0": 1,
        "ranges1": 1,
        "leap": false
      },
      "pos": [
        56,
        2
      ]
    },
    {
      "plugin": "cf",
      "version": "0.6.0",
      "model": "MASTER",
      "params": [
        {
          "paramId": 0,
          "value": 0.0150000006
        },
        {
          "paramId": 1,
          "value": 0.0
        }
      ],
      "data": {
        "onstate": 1
      },
      "pos": [
        77,
        3
      ]
    },
    {
      "plugin": "cf",
      "version": "0.6.0",
      "model": "MONO",
      "params": [
        {
          "paramId": 0,
          "value": 0.0
        },
        {
          "paramId": 1,
          "value": 6.80000019
        },
        {
          "paramId": 2,
          "value": 0.0
        },
        {
          "paramId": 3,
          "value": 0.0
        }
      ],
      "data": {
        "solostate": 0,
        "onstate": 1
      },
      "pos": [
        71,
        3
      ]
    },
    {
      "plugin": "cf",
      "version": "0.6.0",
      "model": "STEREO",
      "params": [
        {
          "paramId": 0,
          "value": 0.0
        },
        {
          "paramId": 1,
          "value": 10.0
        },
        {
          "paramId": 2,
          "value": 0.0
        },
        {
          "paramId": 3,
          "value": 0.0
        }
      ],
      "data": {
        "solostate": 0,
        "onstate": 1
      },
      "pos": [
        65,
        3
      ]
    },
    {
      "plugin": "Geodesics",
      "version": "0.6.2",
      "model": "Ions",
      "params": [
        {
          "paramId": 2,
          "value": 0.370534956
        },
        {
          "paramId": 3,
          "value": 0.972525835
        },
        {
          "paramId": 4,
          "value": 0.184126258
        },
        {
          "paramId": 5,
          "value": 0.139374316
        },
        {
          "paramId": 6,
          "value": 0.351759851
        },
        {
          "paramId": 7,
          "value": 0.141374707
        },
        {
          "paramId": 8,
          "value": 0.05950737
        },
        {
          "paramId": 9,
          "value": 0.29734385
        },
        {
          "paramId": 10,
          "value": 0.992820442
        },
        {
          "paramId": 11,
          "value": 0.518101871
        },
        {
          "paramId": 12,
          "value": 0.730567098
        },
        {
          "paramId": 13,
          "value": 0.894979477
        },
        {
          "paramId": 14,
          "value": 0.404866397
        },
        {
          "paramId": 15,
          "value": 0.491190016
        },
        {
          "paramId": 16,
          "value": 0.592226624
        },
        {
          "paramId": 17,
          "value": 0.611999869
        },
        {
          "paramId": 20,
          "value": 0.0
        },
        {
          "paramId": 23,
          "value": 0.0
        },
        {
          "paramId": 18,
          "value": 0.0
        },
        {
          "paramId": 19,
          "value": 0.0
        },
        {
          "paramId": 0,
          "value": 0.0
        },
        {
          "paramId": 1,
          "value": 0.0
        },
        {
          "paramId": 26,
          "value": 0.0
        },
        {
          "paramId": 25,
          "value": 0.0
        },
        {
          "paramId": 21,
          "value": 0.0
        },
        {
          "paramId": 22,
          "value": 0.0
        },
        {
          "paramId": 24,
          "value": 0.0
        }
      ],
      "data": {
        "panelTheme": 0,
        "resetOnRun": false,
        "quantize": 2,
        "uncertainty": true,
        "running": true,
        "stepIndexes0": 6,
        "stepIndexes1": 6,
        "states0": 2,
        "states1": 0,
        "ranges0": 0,
        "ranges1": 1,
        "leap": false
      },
      "pos": [
        75,
        2
      ]
    },
    {
      "plugin": "AudibleInstruments",
      "version": "0.6.0",
      "model": "Clouds",
      "params": [
        {
          "paramId": 3,
          "value": 0.5
        },
        {
          "paramId": 4,
          "value": 0.737000108
        },
        {
          "paramId": 5,
          "value": 0.0
        },
        {
          "paramId": 6,
          "value": 1.0
        },
        {
          "paramId": 7,
          "value": 0.750499964
        },
        {
          "paramId": 8,
          "value": 1.0
        },
        {
          "paramId": 9,
          "value": 1.0
        },
        {
          "paramId": 10,
          "value": 1.0
        },
        {
          "paramId": 11,
          "value": 0.3495
        },
        {
          "paramId": 12,
          "value": 0.775000155
        },
        {
          "paramId": 0,
          "value": 0.0
        },
        {
          "paramId": 1,
          "value": 0.0
        },
        {
          "paramId": 2,
          "value": 0.0
        }
      ],
      "data": {
        "playback": 0,
        "quality": 0,
        "blendMode": 2
      },
      "pos": [
        46,
        3
      ]
    },
    {
      "plugin": "ModularFungi",
      "version": "0.6.1",
      "model": "Blank 1HP",
      "params": [],
      "pos": [
        64,
        3
      ]
    },
    {
      "plugin": "MSM",
      "version": "0.6.3",
      "model": "Dual Delay",
      "params": [
        {
          "paramId": 0,
          "value": 1.0
        },
        {
          "paramId": 12,
          "value": 0.5
        },
        {
          "paramId": 14,
          "value": 1.0
        },
        {
          "paramId": 2,
          "value": 0.480499953
        },
        {
          "paramId": 4,
          "value": 0.653999925
        },
        {
          "paramId": 6,
          "value": 0.497500092
        },
        {
          "paramId": 7,
          "value": 0.367500037
        },
        {
          "paramId": 10,
          "value": 0.5
        },
        {
          "paramId": 1,
          "value": 1.0
        },
        {
          "paramId": 13,
          "value": 0.5
        },
        {
          "paramId": 15,
          "value": 1.0
        },
        {
          "paramId": 3,
          "value": 0.39049992
        },
        {
          "paramId": 5,
          "value": 0.731999993
        },
        {
          "paramId": 8,
          "value": 0.581499934
        },
        {
          "paramId": 9,
          "value": 0.530999959
        },
        {
          "paramId": 11,
          "value": 0.5
        }
      ],
      "data": {
        "Theme": 0,
        "DISPLAYA": 1,
        "DISPLAYB": 1
      },
      "pos": [
        83,
        3
      ]
    },
    {
      "plugin": "SynthKit",
      "version": "0.6.2",
      "model": "1x8 Splitter",
      "params": [],
      "pos": [
        34,
        2
      ]
    },
    {
      "plugin": "Valley",
      "version": "0.6.5",
      "model": "Topograph",
      "params": [
        {
          "paramId": 2,
          "value": 0.0
        },
        {
          "paramId": 3,
          "value": 0.605499983
        },
        {
          "paramId": 4,
          "value": 0.503499925
        },
        {
          "paramId": 5,
          "value": 1.0
        },
        {
          "paramId": 6,
          "value": 0.0740000233
        },
        {
          "paramId": 7,
          "value": 0.059000127
        },
        {
          "paramId": 8,
          "value": 0.5
        },
        {
          "paramId": 9,
          "value": 0.0
        },
        {
          "paramId": 0,
          "value": 0.0
        },
        {
          "paramId": 1,
          "value": 0.0
        }
      ],
      "data": {
        "sequencerMode": 0,
        "triggerOutputMode": 0,
        "accOutputMode": 0,
        "extClockResolution": 0,
        "chaosKnobMode": 0,
        "runMode": 0,
        "panelStyle": 1,
        "running": 1
      },
      "pos": [
        14,
        4
      ]
    },
    {
      "plugin": "Autodafe-Drum Kit",
      "version": "0.6.0",
      "model": "Drums - Kick",
      "params": [
        {
          "paramId": 0,
          "value": 0.0
        }
      ],
      "data": {
        "sampletype": 4
      },
      "pos": [
        30,
        4
      ]
    },
    {
      "plugin": "cf",
      "version": "0.6.0",
      "model": "MONO",
      "params": [
        {
          "paramId": 0,
          "value": 0.0
        },
        {
          "paramId": 1,
          "value": 0.799999952
        },
        {
          "paramId": 2,
          "value": 0.0
        },
        {
          "paramId": 3,
          "value": 0.0
        }
      ],
      "data": {
        "solostate": 0,
        "onstate": 1
      },
      "pos": [
        82,
        0
      ]
    },
    {
      "plugin": "cf",
      "version": "0.6.0",
      "model": "MONO",
      "params": [
        {
          "paramId": 0,
          "value": 0.702000022
        },
        {
          "paramId": 1,
          "value": 0.740000129
        },
        {
          "paramId": 2,
          "value": 0.0
        },
        {
          "paramId": 3,
          "value": 0.0
        }
      ],
      "data": {
        "solostate": 0,
        "onstate": 1
      },
      "pos": [
        76,
        0
      ]
    },
    {
      "plugin": "cf",
      "version": "0.6.0",
      "model": "MONO",
      "params": [
        {
          "paramId": 0,
          "value": -0.443999946
        },
        {
          "paramId": 1,
          "value": 0.725000024
        },
        {
          "paramId": 2,
          "value": 0.0
        },
        {
          "paramId": 3,
          "value": 0.0
        }
      ],
      "data": {
        "solostate": 0,
        "onstate": 1
      },
      "pos": [
        70,
        0
      ]
    },
    {
      "plugin": "cf",
      "version": "0.6.0",
      "model": "MONO",
      "params": [
        {
          "paramId": 0,
          "value": 0.0
        },
        {
          "paramId": 1,
          "value": 3.88999963
        },
        {
          "paramId": 2,
          "value": 0.0
        },
        {
          "paramId": 3,
          "value": 0.0
        }
      ],
      "data": {
        "solostate": 0,
        "onstate": 1
      },
      "pos": [
        64,
        0
      ]
    },
    {
      "plugin": "Autodafe-Drum Kit",
      "version": "0.6.0",
      "model": "Drums - Snare",
      "params": [
        {
          "paramId": 0,
          "value": 0.0
        }
      ],
      "data": {
        "sampletype": 3
      },
      "pos": [
        34,
        4
      ]
    },
    {
      "plugin": "Autodafe-Drum Kit",
      "version": "0.6.0",
      "model": "Drums - Closed Hats",
      "params": [
        {
          "paramId": 0,
          "value": 0.0
        }
      ],
      "data": {
        "sampletype": 4
      },
      "pos": [
        38,
        4
      ]
    },
    {
      "plugin": "Autodafe-Drum Kit",
      "version": "0.6.0",
      "model": "Drums - Rim/Claves",
      "params": [
        {
          "paramId": 0,
          "value": 0.0
        }
      ],
      "data": {
        "sampletype": 1
      },
      "pos": [
        42,
        4
      ]
    },
    {
      "plugin": "cf",
      "version": "0.6.0",
      "model": "STEREO",
      "params": [
        {
          "paramId": 0,
          "value": 0.0
        },
        {
          "paramId": 1,
          "value": 10.0
        },
        {
          "paramId": 2,
          "value": 0.0
        },
        {
          "paramId": 3,
          "value": 0.0
        }
      ],
      "data": {
        "solostate": 0,
        "onstate": 1
      },
      "pos": [
        40,
        3
      ]
    },
    {
      "plugin": "cf",
      "version": "0.6.0",
      "model": "MONO",
      "params": [
        {
          "paramId": 0,
          "value": 0.994000018
        },
        {
          "paramId": 1,
          "value": 0.619999945
        },
        {
          "paramId": 2,
          "value": 0.0
        },
        {
          "paramId": 3,
          "value": 0.0
        }
      ],
      "data": {
        "solostate": 0,
        "onstate": 1
      },
      "pos": [
        88,
        0
      ]
    },
    {
      "plugin": "Autodafe-Drum Kit",
      "version": "0.6.0",
      "model": "Drums - Ride",
      "params": [
        {
          "paramId": 0,
          "value": 0.0
        }
      ],
      "data": {
        "sampletype": 4
      },
      "pos": [
        46,
        4
      ]
    },
    {
      "plugin": "cf",
      "version": "0.6.0",
      "model": "MONO",
      "params": [
        {
          "paramId": 0,
          "value": -0.57400012
        },
        {
          "paramId": 1,
          "value": 1.35500014
        },
        {
          "paramId": 2,
          "value": 0.0
        },
        {
          "paramId": 3,
          "value": 0.0
        }
      ],
      "data": {
        "solostate": 0,
        "onstate": 1
      },
      "pos": [
        94,
        0
      ]
    },
    {
      "plugin": "Autodafe-Drum Kit",
      "version": "0.6.0",
      "model": "Drums - Cymbals",
      "params": [
        {
          "paramId": 0,
          "value": 0.0
        }
      ],
      "data": {
        "sampletype": 7
      },
      "pos": [
        50,
        4
      ]
    },
    {
      "plugin": "cf",
      "version": "0.6.0",
      "model": "MASTER",
      "params": [
        {
          "paramId": 0,
          "value": 0.0
        },
        {
          "paramId": 1,
          "value": 0.0
        }
      ],
      "data": {
        "onstate": 1
      },
      "pos": [
        54,
        4
      ]
    },
    {
      "plugin": "cf",
      "version": "0.6.0",
      "model": "STEREO",
      "params": [
        {
          "paramId": 0,
          "value": 0.0
        },
        {
          "paramId": 1,
          "value": 5.0
        },
        {
          "paramId": 2,
          "value": 0.0
        },
        {
          "paramId": 3,
          "value": 0.0
        }
      ],
      "data": {
        "solostate": 0,
        "onstate": 1
      },
      "pos": [
        100,
        0
      ]
    },
    {
      "plugin": "ModularFungi",
      "version": "0.6.1",
      "model": "Blank 1HP",
      "params": [],
      "pos": [
        60,
        4
      ]
    },
    {
      "plugin": "JW-Modules",
      "version": "0.6.2",
      "model": "Quantizer",
      "params": [
        {
          "paramId": 0,
          "value": 0.0
        },
        {
          "paramId": 1,
          "value": 11.0
        }
      ],
      "data": {},
      "pos": [
        94,
        2
      ]
    },
    {
      "plugin": "ModularFungi",
      "version": "0.6.1",
      "model": "Blank 20HP",
      "params": [],
      "pos": [
        100,
        2
      ]
    },
    {
      "plugin": "ModularFungi",
      "version": "0.6.1",
      "model": "Blank 1HP",
      "params": [],
      "pos": [
        99,
        2
      ]
    },
    {
      "plugin": "ModularFungi",
      "version": "0.6.1",
      "model": "Blank 1HP",
      "params": [],
      "pos": [
        98,
        2
      ]
    },
    {
      "plugin": "ModularFungi",
      "version": "0.6.1",
      "model": "Blank 26HP",
      "params": [],
      "pos": [
        94,
        4
      ]
    },
    {
      "plugin": "ModularFungi",
      "version": "0.6.1",
      "model": "Blank 26HP",
      "params": [],
      "pos": [
        68,
        4
      ]
    },
    {
      "plugin": "ModularFungi",
      "version": "0.6.1",
      "model": "Blank 6HP",
      "params": [],
      "pos": [
        61,
        4
      ]
    },
    {
      "plugin": "ModularFungi",
      "version": "0.6.1",
      "model": "Blank 1HP",
      "params": [],
      "pos": [
        67,
        4
      ]
    }
  ],
  "wires": [
    {
      "color": "#0986ad",
      "outputModuleId": 2,
      "outputId": 2,
      "inputModuleId": 0,
      "inputId": 0
    },
    {
      "color": "#c9b70e",
      "outputModuleId": 2,
      "outputId": 3,
      "inputModuleId": 0,
      "inputId": 1
    },
    {
      "color": "#0986ad",
      "outputModuleId": 3,
      "outputId": 0,
      "inputModuleId": 30,
      "inputId": 8
    },
    {
      "color": "#c9b70e",
      "outputModuleId": 3,
      "outputId": 1,
      "inputModuleId": 30,
      "inputId": 9
    },
    {
      "color": "#0986ad",
      "outputModuleId": 4,
      "outputId": 0,
      "inputModuleId": 5,
      "inputId": 1
    },
    {
      "color": "#c9b70e",
      "outputModuleId": 4,
      "outputId": 1,
      "inputModuleId": 5,
      "inputId": 2
    },
    {
      "color": "#0986ad",
      "outputModuleId": 6,
      "outputId": 0,
      "inputModuleId": 5,
      "inputId": 3
    },
    {
      "color": "#c9b70e",
      "outputModuleId": 6,
      "outputId": 1,
      "inputModuleId": 5,
      "inputId": 4
    },
    {
      "color": "#c91847",
      "outputModuleId": 14,
      "outputId": 2,
      "inputModuleId": 6,
      "inputId": 4
    },
    {
      "color": "#0986ad",
      "outputModuleId": 8,
      "outputId": 1,
      "inputModuleId": 7,
      "inputId": 2
    },
    {
      "color": "#c9b70e",
      "outputModuleId": 8,
      "outputId": 2,
      "inputModuleId": 7,
      "inputId": 3
    },
    {
      "color": "#c9b70e",
      "outputModuleId": 11,
      "outputId": 0,
      "inputModuleId": 9,
      "inputId": 9
    },
    {
      "color": "#c91847",
      "outputModuleId": 9,
      "outputId": 1,
      "inputModuleId": 8,
      "inputId": 5
    },
    {
      "color": "#0c8e15",
      "outputModuleId": 9,
      "outputId": 2,
      "inputModuleId": 8,
      "inputId": 6
    },
    {
      "color": "#0986ad",
      "outputModuleId": 1,
      "outputId": 1,
      "inputModuleId": 4,
      "inputId": 1
    },
    {
      "color": "#c9b70e",
      "outputModuleId": 4,
      "outputId": 2,
      "inputModuleId": 4,
      "inputId": 2
    },
    {
      "color": "#c91847",
      "outputModuleId": 10,
      "outputId": 0,
      "inputModuleId": 5,
      "inputId": 5
    },
    {
      "color": "#0c8e15",
      "outputModuleId": 14,
      "outputId": 0,
      "inputModuleId": 10,
      "inputId": 1
    },
    {
      "color": "#0986ad",
      "outputModuleId": 7,
      "outputId": 2,
      "inputModuleId": 13,
      "inputId": 11
    },
    {
      "color": "#c9b70e",
      "outputModuleId": 7,
      "outputId": 3,
      "inputModuleId": 13,
      "inputId": 12
    },
    {
      "color": "#c91847",
      "outputModuleId": 32,
      "outputId": 0,
      "inputModuleId": 5,
      "inputId": 0
    },
    {
      "color": "#0c8e15",
      "outputModuleId": 1,
      "outputId": 3,
      "inputModuleId": 10,
      "inputId": 0
    },
    {
      "color": "#0986ad",
      "outputModuleId": 5,
      "outputId": 2,
      "inputModuleId": 24,
      "inputId": 9
    },
    {
      "color": "#c91847",
      "outputModuleId": 5,
      "outputId": 0,
      "inputModuleId": 8,
      "inputId": 8
    },
    {
      "color": "#0c8e15",
      "outputModuleId": 5,
      "outputId": 1,
      "inputModuleId": 24,
      "inputId": 8
    },
    {
      "color": "#0986ad",
      "outputModuleId": 11,
      "outputId": 1,
      "inputModuleId": 9,
      "inputId": 8
    },
    {
      "color": "#c91847",
      "outputModuleId": 1,
      "outputId": 0,
      "inputModuleId": 14,
      "inputId": 0
    },
    {
      "color": "#0c8e15",
      "outputModuleId": 14,
      "outputId": 1,
      "inputModuleId": 13,
      "inputId": 0
    },
    {
      "color": "#0986ad",
      "outputModuleId": 13,
      "outputId": 0,
      "inputModuleId": 3,
      "inputId": 0
    },
    {
      "color": "#c91847",
      "outputModuleId": 13,
      "outputId": 1,
      "inputModuleId": 3,
      "inputId": 1
    },
    {
      "color": "#0c8e15",
      "outputModuleId": 1,
      "outputId": 2,
      "inputModuleId": 15,
      "inputId": 0
    },
    {
      "color": "#0986ad",
      "outputModuleId": 20,
      "outputId": 1,
      "inputModuleId": 19,
      "inputId": 5
    },
    {
      "color": "#c9b70e",
      "outputModuleId": 19,
      "outputId": 1,
      "inputModuleId": 18,
      "inputId": 5
    },
    {
      "color": "#c91847",
      "outputModuleId": 18,
      "outputId": 1,
      "inputModuleId": 17,
      "inputId": 5
    },
    {
      "color": "#0986ad",
      "outputModuleId": 17,
      "outputId": 1,
      "inputModuleId": 25,
      "inputId": 5
    },
    {
      "color": "#c91847",
      "outputModuleId": 20,
      "outputId": 2,
      "inputModuleId": 19,
      "inputId": 6
    },
    {
      "color": "#0c8e15",
      "outputModuleId": 19,
      "outputId": 2,
      "inputModuleId": 18,
      "inputId": 6
    },
    {
      "color": "#0986ad",
      "outputModuleId": 18,
      "outputId": 2,
      "inputModuleId": 17,
      "inputId": 6
    },
    {
      "color": "#c9b70e",
      "outputModuleId": 17,
      "outputId": 2,
      "inputModuleId": 25,
      "inputId": 6
    },
    {
      "color": "#c91847",
      "outputModuleId": 15,
      "outputId": 0,
      "inputModuleId": 16,
      "inputId": 0
    },
    {
      "color": "#0c8e15",
      "outputModuleId": 16,
      "outputId": 0,
      "inputModuleId": 20,
      "inputId": 8
    },
    {
      "color": "#0986ad",
      "outputModuleId": 15,
      "outputId": 1,
      "inputModuleId": 21,
      "inputId": 0
    },
    {
      "color": "#c9b70e",
      "outputModuleId": 21,
      "outputId": 0,
      "inputModuleId": 19,
      "inputId": 8
    },
    {
      "color": "#c91847",
      "outputModuleId": 22,
      "outputId": 0,
      "inputModuleId": 18,
      "inputId": 8
    },
    {
      "color": "#0c8e15",
      "outputModuleId": 15,
      "outputId": 2,
      "inputModuleId": 22,
      "inputId": 0
    },
    {
      "color": "#0986ad",
      "outputModuleId": 15,
      "outputId": 3,
      "inputModuleId": 23,
      "inputId": 0
    },
    {
      "color": "#c9b70e",
      "outputModuleId": 23,
      "outputId": 0,
      "inputModuleId": 17,
      "inputId": 8
    },
    {
      "color": "#c91847",
      "outputModuleId": 24,
      "outputId": 3,
      "inputModuleId": 11,
      "inputId": 6
    },
    {
      "color": "#0c8e15",
      "outputModuleId": 24,
      "outputId": 4,
      "inputModuleId": 11,
      "inputId": 7
    },
    {
      "color": "#0986ad",
      "outputModuleId": 25,
      "outputId": 1,
      "inputModuleId": 27,
      "inputId": 5
    },
    {
      "color": "#c9b70e",
      "outputModuleId": 25,
      "outputId": 2,
      "inputModuleId": 27,
      "inputId": 6
    },
    {
      "color": "#0c8e15",
      "outputModuleId": 15,
      "outputId": 4,
      "inputModuleId": 26,
      "inputId": 0
    },
    {
      "color": "#0986ad",
      "outputModuleId": 26,
      "outputId": 0,
      "inputModuleId": 25,
      "inputId": 8
    },
    {
      "color": "#c9b70e",
      "outputModuleId": 27,
      "outputId": 1,
      "inputModuleId": 29,
      "inputId": 2
    },
    {
      "color": "#c91847",
      "outputModuleId": 27,
      "outputId": 2,
      "inputModuleId": 29,
      "inputId": 3
    },
    {
      "color": "#0986ad",
      "outputModuleId": 28,
      "outputId": 0,
      "inputModuleId": 27,
      "inputId": 8
    },
    {
      "color": "#c9b70e",
      "outputModuleId": 15,
      "outputId": 5,
      "inputModuleId": 28,
      "inputId": 0
    },
    {
      "color": "#0c8e15",
      "outputModuleId": 29,
      "outputId": 3,
      "inputModuleId": 30,
      "inputId": 6
    },
    {
      "color": "#0c8e15",
      "outputModuleId": 29,
      "outputId": 2,
      "inputModuleId": 30,
      "inputId": 5
    },
    {
      "color": "#c91847",
      "outputModuleId": 30,
      "outputId": 1,
      "inputModuleId": 2,
      "inputId": 2
    },
    {
      "color": "#0c8e15",
      "outputModuleId": 30,
      "outputId": 2,
      "inputModuleId": 2,
      "inputId": 3
    },
    {
      "color": "#0c8e15",
      "outputModuleId": 10,
      "outputId": 1,
      "inputModuleId": 32,
      "inputId": 2
    },
    {
      "color": "#0986ad",
      "outputModuleId": 1,
      "outputId": 4,
      "inputModuleId": 15,
      "inputId": 1
    }
  ]
}