{
  "version": "0.6.2b",
  "modules": [
    {
      "plugin": "Core",
      "version": "0.6.2b",
      "model": "AudioInterface",
      "params": [],
      "data": {
        "audio": {
          "driver": 8,
          "deviceName": "Line (4- Steinberg UR242)",
          "offset": 0,
          "maxChannels": 8,
          "sampleRate": 44100,
          "blockSize": 4096
        }
      },
      "pos": [
        94,
        0
      ]
    },
    {
      "plugin": "ImpromptuModular",
      "version": "0.6.10",
      "model": "Clocked",
      "params": [
        {
          "paramId": 0,
          "value": 155.0
        },
        {
          "paramId": 12,
          "value": 0.0
        },
        {
          "paramId": 13,
          "value": 0.0
        },
        {
          "paramId": 18,
          "value": 0.0
        },
        {
          "paramId": 4,
          "value": 0.0
        },
        {
          "paramId": 8,
          "value": 0.5
        },
        {
          "paramId": 1,
          "value": -2.0
        },
        {
          "paramId": 5,
          "value": 0.0
        },
        {
          "paramId": 9,
          "value": 0.5
        },
        {
          "paramId": 15,
          "value": 0.0
        },
        {
          "paramId": 2,
          "value": 2.0
        },
        {
          "paramId": 6,
          "value": 0.0
        },
        {
          "paramId": 10,
          "value": 0.5
        },
        {
          "paramId": 16,
          "value": 0.0
        },
        {
          "paramId": 3,
          "value": 0.0
        },
        {
          "paramId": 7,
          "value": 0.0
        },
        {
          "paramId": 11,
          "value": 0.5
        },
        {
          "paramId": 17,
          "value": 0.0
        }
      ],
      "data": {
        "running": true,
        "panelTheme": 0,
        "expansion": 0,
        "displayDelayNoteMode": true,
        "bpmDetectionMode": false,
        "emitResetOnStopRun": false,
        "ppqn": 4
      },
      "pos": [
        14,
        2
      ]
    },
    {
      "plugin": "cf",
      "version": "0.6.0",
      "model": "MASTER",
      "params": [
        {
          "paramId": 0,
          "value": 2.13499928
        },
        {
          "paramId": 1,
          "value": 0.0
        }
      ],
      "data": {
        "onstate": 1
      },
      "pos": [
        88,
        0
      ]
    },
    {
      "plugin": "Valley",
      "version": "0.6.5",
      "model": "Plateau",
      "params": [
        {
          "paramId": 0,
          "value": 1.0
        },
        {
          "paramId": 1,
          "value": 0.300499976
        },
        {
          "paramId": 2,
          "value": 0.0
        },
        {
          "paramId": 3,
          "value": 10.0
        },
        {
          "paramId": 4,
          "value": 10.0
        },
        {
          "paramId": 5,
          "value": 0.5
        },
        {
          "paramId": 6,
          "value": 10.0
        },
        {
          "paramId": 7,
          "value": 0.33937341
        },
        {
          "paramId": 9,
          "value": 10.0
        },
        {
          "paramId": 8,
          "value": 10.0
        },
        {
          "paramId": 10,
          "value": 0.0
        },
        {
          "paramId": 12,
          "value": 0.5
        },
        {
          "paramId": 11,
          "value": 0.5
        },
        {
          "paramId": 17,
          "value": 1.0
        },
        {
          "paramId": 18,
          "value": 1.0
        },
        {
          "paramId": 19,
          "value": 1.0
        },
        {
          "paramId": 20,
          "value": 1.0
        },
        {
          "paramId": 21,
          "value": 1.0
        },
        {
          "paramId": 22,
          "value": 1.0
        },
        {
          "paramId": 23,
          "value": 1.0
        },
        {
          "paramId": 25,
          "value": 1.0
        },
        {
          "paramId": 24,
          "value": 1.0
        },
        {
          "paramId": 26,
          "value": 1.0
        },
        {
          "paramId": 28,
          "value": 1.0
        },
        {
          "paramId": 27,
          "value": 1.0
        },
        {
          "paramId": 13,
          "value": 0.0
        },
        {
          "paramId": 15,
          "value": 0.0
        },
        {
          "paramId": 14,
          "value": 0.0
        },
        {
          "paramId": 29,
          "value": 0.0
        },
        {
          "paramId": 30,
          "value": 0.0
        }
      ],
      "data": {
        "frozen": false,
        "freezeToggle": false,
        "panelStyle": 0,
        "tuned": 0,
        "diffuseInput": 1
      },
      "pos": [
        54,
        3
      ]
    },
    {
      "plugin": "Geodesics",
      "version": "0.6.2",
      "model": "Ions",
      "params": [
        {
          "paramId": 2,
          "value": 0.00150000001
        },
        {
          "paramId": 3,
          "value": 0.725000024
        },
        {
          "paramId": 4,
          "value": 0.659000039
        },
        {
          "paramId": 5,
          "value": 0.745999932
        },
        {
          "paramId": 6,
          "value": 0.599000037
        },
        {
          "paramId": 7,
          "value": 0.725000083
        },
        {
          "paramId": 8,
          "value": 0.630500019
        },
        {
          "paramId": 9,
          "value": 0.74300009
        },
        {
          "paramId": 10,
          "value": 0.372500002
        },
        {
          "paramId": 11,
          "value": 0.63350004
        },
        {
          "paramId": 12,
          "value": 0.659000039
        },
        {
          "paramId": 13,
          "value": 0.372499973
        },
        {
          "paramId": 14,
          "value": 0.327500015
        },
        {
          "paramId": 15,
          "value": 0.261500031
        },
        {
          "paramId": 16,
          "value": 0.21450001
        },
        {
          "paramId": 17,
          "value": 0.0
        },
        {
          "paramId": 20,
          "value": 0.0
        },
        {
          "paramId": 23,
          "value": 0.0
        },
        {
          "paramId": 18,
          "value": 0.0
        },
        {
          "paramId": 19,
          "value": 0.0
        },
        {
          "paramId": 0,
          "value": 0.0
        },
        {
          "paramId": 1,
          "value": 0.0
        },
        {
          "paramId": 26,
          "value": 0.0
        },
        {
          "paramId": 25,
          "value": 0.0
        },
        {
          "paramId": 21,
          "value": 0.0
        },
        {
          "paramId": 22,
          "value": 0.0
        },
        {
          "paramId": 24,
          "value": 0.0
        }
      ],
      "data": {
        "panelTheme": 0,
        "resetOnRun": false,
        "quantize": 3,
        "uncertainty": false,
        "running": true,
        "stepIndexes0": 5,
        "stepIndexes1": 5,
        "states0": 0,
        "states1": 0,
        "ranges0": 1,
        "ranges1": 0,
        "leap": true
      },
      "pos": [
        53,
        2
      ]
    },
    {
      "plugin": "Geodesics",
      "version": "0.6.2",
      "model": "Ions",
      "params": [
        {
          "paramId": 2,
          "value": 1.0
        },
        {
          "paramId": 3,
          "value": 0.0
        },
        {
          "paramId": 4,
          "value": 0.0
        },
        {
          "paramId": 5,
          "value": 0.0
        },
        {
          "paramId": 6,
          "value": 0.0
        },
        {
          "paramId": 7,
          "value": 0.0
        },
        {
          "paramId": 8,
          "value": 0.0
        },
        {
          "paramId": 9,
          "value": 0.0
        },
        {
          "paramId": 10,
          "value": 0.5
        },
        {
          "paramId": 11,
          "value": 0.589999974
        },
        {
          "paramId": 12,
          "value": 0.837500036
        },
        {
          "paramId": 13,
          "value": 0.377000004
        },
        {
          "paramId": 14,
          "value": 0.5
        },
        {
          "paramId": 15,
          "value": 0.5
        },
        {
          "paramId": 16,
          "value": 0.5
        },
        {
          "paramId": 17,
          "value": 0.0
        },
        {
          "paramId": 20,
          "value": 0.0
        },
        {
          "paramId": 23,
          "value": 0.0
        },
        {
          "paramId": 18,
          "value": 0.0
        },
        {
          "paramId": 19,
          "value": 0.0
        },
        {
          "paramId": 0,
          "value": 0.0
        },
        {
          "paramId": 1,
          "value": 0.0
        },
        {
          "paramId": 26,
          "value": 0.0
        },
        {
          "paramId": 25,
          "value": 0.0
        },
        {
          "paramId": 21,
          "value": 0.0
        },
        {
          "paramId": 22,
          "value": 0.0
        },
        {
          "paramId": 24,
          "value": 0.0
        }
      ],
      "data": {
        "panelTheme": 0,
        "resetOnRun": false,
        "quantize": 2,
        "uncertainty": false,
        "running": true,
        "stepIndexes0": 7,
        "stepIndexes1": 3,
        "states0": 1,
        "states1": 1,
        "ranges0": 2,
        "ranges1": 1,
        "leap": false
      },
      "pos": [
        34,
        2
      ]
    },
    {
      "plugin": "Befaco",
      "version": "0.6.0",
      "model": "EvenVCO",
      "params": [
        {
          "paramId": 0,
          "value": -3.0
        },
        {
          "paramId": 1,
          "value": 0.0
        },
        {
          "paramId": 2,
          "value": 0.0
        }
      ],
      "pos": [
        14,
        3
      ]
    },
    {
      "plugin": "Befaco",
      "version": "0.6.0",
      "model": "EvenVCO",
      "params": [
        {
          "paramId": 0,
          "value": -1.0
        },
        {
          "paramId": 1,
          "value": 0.0
        },
        {
          "paramId": 2,
          "value": 0.0
        }
      ],
      "pos": [
        22,
        3
      ]
    },
    {
      "plugin": "Befaco",
      "version": "0.6.0",
      "model": "EvenVCO",
      "params": [
        {
          "paramId": 0,
          "value": 0.0
        },
        {
          "paramId": 1,
          "value": 0.0
        },
        {
          "paramId": 2,
          "value": 0.0
        }
      ],
      "pos": [
        30,
        3
      ]
    },
    {
      "plugin": "cf",
      "version": "0.6.0",
      "model": "MASTER",
      "params": [
        {
          "paramId": 0,
          "value": 0.0150000006
        },
        {
          "paramId": 1,
          "value": 0.0
        }
      ],
      "data": {
        "onstate": 1
      },
      "pos": [
        48,
        3
      ]
    },
    {
      "plugin": "VultCompacts",
      "version": "0.6.6",
      "model": "Freak",
      "params": [
        {
          "paramId": 0,
          "value": 0.325000167
        },
        {
          "paramId": 1,
          "value": 0.0
        },
        {
          "paramId": 2,
          "value": 0.0
        },
        {
          "paramId": 3,
          "value": 0.363000035
        },
        {
          "paramId": 4,
          "value": 0.0
        },
        {
          "paramId": 5,
          "value": 0.600000024
        },
        {
          "paramId": 6,
          "value": 0.0
        },
        {
          "paramId": 8,
          "value": 0.0
        },
        {
          "paramId": 9,
          "value": 0.0
        },
        {
          "paramId": 10,
          "value": 0.0
        },
        {
          "paramId": 11,
          "value": 0.0
        },
        {
          "paramId": 7,
          "value": 0.0
        },
        {
          "paramId": 12,
          "value": 0.0
        }
      ],
      "data": {
        "filter": 5,
        "mode": 0,
        "mode1": 0,
        "mode2": 0,
        "mode3": 0,
        "mode4": 0,
        "mode5": 0,
        "mode6": 0,
        "mode7": 0,
        "mode8": 0,
        "mode9": 0
      },
      "pos": [
        38,
        3
      ]
    },
    {
      "plugin": "cf",
      "version": "0.6.0",
      "model": "MONO",
      "params": [
        {
          "paramId": 0,
          "value": -1.0
        },
        {
          "paramId": 1,
          "value": 5.0
        },
        {
          "paramId": 2,
          "value": 0.0
        },
        {
          "paramId": 3,
          "value": 0.0
        }
      ],
      "data": {
        "solostate": 0,
        "onstate": 1
      },
      "pos": [
        66,
        0
      ]
    },
    {
      "plugin": "cf",
      "version": "0.6.0",
      "model": "MONO",
      "params": [
        {
          "paramId": 0,
          "value": 0.0
        },
        {
          "paramId": 1,
          "value": 5.0
        },
        {
          "paramId": 2,
          "value": 0.0
        },
        {
          "paramId": 3,
          "value": 0.0
        }
      ],
      "data": {
        "solostate": 0,
        "onstate": 1
      },
      "pos": [
        60,
        0
      ]
    },
    {
      "plugin": "cf",
      "version": "0.6.0",
      "model": "MONO",
      "params": [
        {
          "paramId": 0,
          "value": 1.0
        },
        {
          "paramId": 1,
          "value": 5.0
        },
        {
          "paramId": 2,
          "value": 0.0
        },
        {
          "paramId": 3,
          "value": 0.0
        }
      ],
      "data": {
        "solostate": 0,
        "onstate": 1
      },
      "pos": [
        72,
        0
      ]
    },
    {
      "plugin": "JW-Modules",
      "version": "0.6.2",
      "model": "Quantizer",
      "params": [
        {
          "paramId": 0,
          "value": 0.0
        },
        {
          "paramId": 1,
          "value": 11.0
        }
      ],
      "data": {},
      "pos": [
        72,
        2
      ]
    },
    {
      "plugin": "JW-Modules",
      "version": "0.6.2",
      "model": "Quantizer",
      "params": [
        {
          "paramId": 0,
          "value": 0.0
        },
        {
          "paramId": 1,
          "value": 11.0
        }
      ],
      "data": {},
      "pos": [
        76,
        2
      ]
    },
    {
      "plugin": "JW-Modules",
      "version": "0.6.2",
      "model": "Quantizer",
      "params": [
        {
          "paramId": 0,
          "value": 0.0
        },
        {
          "paramId": 1,
          "value": 11.0
        }
      ],
      "data": {},
      "pos": [
        80,
        2
      ]
    },
    {
      "plugin": "JW-Modules",
      "version": "0.6.2",
      "model": "FullScope",
      "params": [
        {
          "paramId": 1,
          "value": 0.0
        },
        {
          "paramId": 3,
          "value": 0.0
        },
        {
          "paramId": 0,
          "value": 0.265000045
        },
        {
          "paramId": 2,
          "value": -0.334999949
        },
        {
          "paramId": 8,
          "value": 0.0
        },
        {
          "paramId": 4,
          "value": -13.2199993
        }
      ],
      "data": {
        "lissajous": 1,
        "external": 0
      },
      "width": 270.0,
      "height": 380.0,
      "pos": [
        66,
        3
      ]
    }
  ],
  "wires": [
    {
      "color": "#0986ad",
      "outputModuleId": 2,
      "outputId": 2,
      "inputModuleId": 0,
      "inputId": 0
    },
    {
      "color": "#c9b70e",
      "outputModuleId": 2,
      "outputId": 3,
      "inputModuleId": 0,
      "inputId": 1
    },
    {
      "color": "#0986ad",
      "outputModuleId": 3,
      "outputId": 0,
      "inputModuleId": 2,
      "inputId": 2
    },
    {
      "color": "#c9b70e",
      "outputModuleId": 3,
      "outputId": 1,
      "inputModuleId": 2,
      "inputId": 3
    },
    {
      "color": "#c91847",
      "outputModuleId": 1,
      "outputId": 0,
      "inputModuleId": 4,
      "inputId": 0
    },
    {
      "color": "#0986ad",
      "outputModuleId": 1,
      "outputId": 1,
      "inputModuleId": 5,
      "inputId": 1
    },
    {
      "color": "#c9b70e",
      "outputModuleId": 5,
      "outputId": 0,
      "inputModuleId": 4,
      "inputId": 5
    },
    {
      "color": "#c91847",
      "outputModuleId": 1,
      "outputId": 2,
      "inputModuleId": 5,
      "inputId": 2
    },
    {
      "color": "#c9b70e",
      "outputModuleId": 12,
      "outputId": 1,
      "inputModuleId": 11,
      "inputId": 5
    },
    {
      "color": "#c91847",
      "outputModuleId": 11,
      "outputId": 1,
      "inputModuleId": 13,
      "inputId": 5
    },
    {
      "color": "#0c8e15",
      "outputModuleId": 12,
      "outputId": 2,
      "inputModuleId": 11,
      "inputId": 6
    },
    {
      "color": "#0986ad",
      "outputModuleId": 11,
      "outputId": 2,
      "inputModuleId": 13,
      "inputId": 6
    },
    {
      "color": "#c9b70e",
      "outputModuleId": 13,
      "outputId": 1,
      "inputModuleId": 10,
      "inputId": 0
    },
    {
      "color": "#c91847",
      "outputModuleId": 13,
      "outputId": 2,
      "inputModuleId": 10,
      "inputId": 1
    },
    {
      "color": "#0c8e15",
      "outputModuleId": 9,
      "outputId": 2,
      "inputModuleId": 3,
      "inputId": 0
    },
    {
      "color": "#0986ad",
      "outputModuleId": 9,
      "outputId": 3,
      "inputModuleId": 3,
      "inputId": 1
    },
    {
      "color": "#c9b70e",
      "outputModuleId": 10,
      "outputId": 0,
      "inputModuleId": 9,
      "inputId": 2
    },
    {
      "color": "#c91847",
      "outputModuleId": 10,
      "outputId": 1,
      "inputModuleId": 9,
      "inputId": 3
    },
    {
      "color": "#0c8e15",
      "outputModuleId": 6,
      "outputId": 2,
      "inputModuleId": 12,
      "inputId": 8
    },
    {
      "color": "#c9b70e",
      "outputModuleId": 7,
      "outputId": 2,
      "inputModuleId": 11,
      "inputId": 8
    },
    {
      "color": "#c9b70e",
      "outputModuleId": 5,
      "outputId": 1,
      "inputModuleId": 14,
      "inputId": 2
    },
    {
      "color": "#c91847",
      "outputModuleId": 14,
      "outputId": 0,
      "inputModuleId": 6,
      "inputId": 1
    },
    {
      "color": "#0986ad",
      "outputModuleId": 4,
      "outputId": 0,
      "inputModuleId": 15,
      "inputId": 2
    },
    {
      "color": "#c9b70e",
      "outputModuleId": 15,
      "outputId": 0,
      "inputModuleId": 7,
      "inputId": 1
    },
    {
      "color": "#c9b70e",
      "outputModuleId": 4,
      "outputId": 1,
      "inputModuleId": 16,
      "inputId": 2
    },
    {
      "color": "#c91847",
      "outputModuleId": 16,
      "outputId": 0,
      "inputModuleId": 8,
      "inputId": 1
    },
    {
      "color": "#0c8e15",
      "outputModuleId": 8,
      "outputId": 2,
      "inputModuleId": 13,
      "inputId": 8
    },
    {
      "color": "#c9b70e",
      "outputModuleId": 6,
      "outputId": 1,
      "inputModuleId": 17,
      "inputId": 0
    },
    {
      "color": "#c91847",
      "outputModuleId": 7,
      "outputId": 1,
      "inputModuleId": 17,
      "inputId": 1
    }
  ]
}