{
  "version": "0.6.2b",
  "modules": [
    {
      "plugin": "Core",
      "version": "0.6.2b",
      "model": "AudioInterface",
      "params": [],
      "data": {
        "audio": {
          "driver": 8,
          "deviceName": "Speakers (Realtek High Definition Audio)",
          "offset": 0,
          "maxChannels": 8,
          "sampleRate": 44100,
          "blockSize": 2048
        }
      },
      "pos": [
        94,
        0
      ]
    },
    {
      "plugin": "ImpromptuModular",
      "version": "0.6.10",
      "model": "Clocked",
      "params": [
        {
          "paramId": 0,
          "value": 120.0
        },
        {
          "paramId": 12,
          "value": 0.0
        },
        {
          "paramId": 13,
          "value": 0.0
        },
        {
          "paramId": 18,
          "value": 0.0
        },
        {
          "paramId": 4,
          "value": 0.0
        },
        {
          "paramId": 8,
          "value": 0.5
        },
        {
          "paramId": 1,
          "value": 1.0
        },
        {
          "paramId": 5,
          "value": 0.0
        },
        {
          "paramId": 9,
          "value": 0.5
        },
        {
          "paramId": 15,
          "value": 0.0
        },
        {
          "paramId": 2,
          "value": 0.0
        },
        {
          "paramId": 6,
          "value": 0.0
        },
        {
          "paramId": 10,
          "value": 0.5
        },
        {
          "paramId": 16,
          "value": 0.0
        },
        {
          "paramId": 3,
          "value": 0.0
        },
        {
          "paramId": 7,
          "value": 0.0
        },
        {
          "paramId": 11,
          "value": 0.5
        },
        {
          "paramId": 17,
          "value": 0.0
        }
      ],
      "data": {
        "running": true,
        "panelTheme": 0,
        "expansion": 0,
        "displayDelayNoteMode": true,
        "bpmDetectionMode": false,
        "emitResetOnStopRun": false,
        "ppqn": 4
      },
      "pos": [
        15,
        2
      ]
    },
    {
      "plugin": "cf",
      "version": "0.6.0",
      "model": "MASTER",
      "params": [
        {
          "paramId": 0,
          "value": 2.74999976
        },
        {
          "paramId": 1,
          "value": 0.0
        }
      ],
      "data": {
        "onstate": 1
      },
      "pos": [
        88,
        0
      ]
    },
    {
      "plugin": "Valley",
      "version": "0.6.5",
      "model": "Plateau",
      "params": [
        {
          "paramId": 0,
          "value": 1.0
        },
        {
          "paramId": 1,
          "value": 0.321499884
        },
        {
          "paramId": 2,
          "value": 0.0
        },
        {
          "paramId": 3,
          "value": 10.0
        },
        {
          "paramId": 4,
          "value": 10.0
        },
        {
          "paramId": 5,
          "value": 0.5
        },
        {
          "paramId": 6,
          "value": 10.0
        },
        {
          "paramId": 7,
          "value": 0.39336741
        },
        {
          "paramId": 9,
          "value": 10.0
        },
        {
          "paramId": 8,
          "value": 10.0
        },
        {
          "paramId": 10,
          "value": 0.0
        },
        {
          "paramId": 12,
          "value": 0.5
        },
        {
          "paramId": 11,
          "value": 0.5
        },
        {
          "paramId": 17,
          "value": 1.0
        },
        {
          "paramId": 18,
          "value": 1.0
        },
        {
          "paramId": 19,
          "value": 1.0
        },
        {
          "paramId": 20,
          "value": 1.0
        },
        {
          "paramId": 21,
          "value": 1.0
        },
        {
          "paramId": 22,
          "value": 1.0
        },
        {
          "paramId": 23,
          "value": 1.0
        },
        {
          "paramId": 25,
          "value": 1.0
        },
        {
          "paramId": 24,
          "value": 1.0
        },
        {
          "paramId": 26,
          "value": 1.0
        },
        {
          "paramId": 28,
          "value": 1.0
        },
        {
          "paramId": 27,
          "value": 1.0
        },
        {
          "paramId": 13,
          "value": 0.0
        },
        {
          "paramId": 15,
          "value": 0.0
        },
        {
          "paramId": 14,
          "value": 0.0
        },
        {
          "paramId": 29,
          "value": 0.0
        },
        {
          "paramId": 30,
          "value": 0.0
        }
      ],
      "data": {
        "frozen": false,
        "freezeToggle": false,
        "panelStyle": 0,
        "tuned": 0,
        "diffuseInput": 1
      },
      "pos": [
        80,
        2
      ]
    },
    {
      "plugin": "cf",
      "version": "0.6.0",
      "model": "MASTER",
      "params": [
        {
          "paramId": 0,
          "value": 2.95999908
        },
        {
          "paramId": 1,
          "value": 0.0
        }
      ],
      "data": {
        "onstate": 1
      },
      "pos": [
        45,
        0
      ]
    },
    {
      "plugin": "Geodesics",
      "version": "0.6.2",
      "model": "Ions",
      "params": [
        {
          "paramId": 2,
          "value": 0.338374913
        },
        {
          "paramId": 3,
          "value": 0.412906051
        },
        {
          "paramId": 4,
          "value": 0.523156226
        },
        {
          "paramId": 5,
          "value": 0.607531309
        },
        {
          "paramId": 6,
          "value": 0.472531289
        },
        {
          "paramId": 7,
          "value": 0.529718876
        },
        {
          "paramId": 8,
          "value": 0.28249985
        },
        {
          "paramId": 9,
          "value": 0.408406228
        },
        {
          "paramId": 10,
          "value": 0.524843752
        },
        {
          "paramId": 11,
          "value": 0.621500194
        },
        {
          "paramId": 12,
          "value": 0.654968739
        },
        {
          "paramId": 13,
          "value": 0.289718747
        },
        {
          "paramId": 14,
          "value": 0.41749993
        },
        {
          "paramId": 15,
          "value": 0.204781294
        },
        {
          "paramId": 16,
          "value": 0.738593817
        },
        {
          "paramId": 17,
          "value": 0.72149986
        },
        {
          "paramId": 20,
          "value": 0.0
        },
        {
          "paramId": 23,
          "value": 0.0
        },
        {
          "paramId": 18,
          "value": 0.0
        },
        {
          "paramId": 19,
          "value": 0.0
        },
        {
          "paramId": 0,
          "value": 0.0
        },
        {
          "paramId": 1,
          "value": 0.0
        },
        {
          "paramId": 26,
          "value": 0.0
        },
        {
          "paramId": 25,
          "value": 0.0
        },
        {
          "paramId": 21,
          "value": 0.0
        },
        {
          "paramId": 22,
          "value": 0.0
        },
        {
          "paramId": 24,
          "value": 0.0
        }
      ],
      "data": {
        "panelTheme": 0,
        "resetOnRun": false,
        "quantize": 3,
        "uncertainty": false,
        "running": true,
        "stepIndexes0": 5,
        "stepIndexes1": 1,
        "states0": 2,
        "states1": 2,
        "ranges0": 1,
        "ranges1": 1,
        "leap": false
      },
      "pos": [
        35,
        2
      ]
    },
    {
      "plugin": "Bogaudio",
      "version": "0.6.7",
      "model": "Bogaudio-VCO",
      "params": [
        {
          "paramId": 0,
          "value": 0.0
        },
        {
          "paramId": 1,
          "value": 0.0
        },
        {
          "paramId": 2,
          "value": 0.0
        },
        {
          "paramId": 3,
          "value": 0.0
        },
        {
          "paramId": 4,
          "value": 0.0249375012
        },
        {
          "paramId": 5,
          "value": 1.0
        }
      ],
      "pos": [
        54,
        2
      ]
    },
    {
      "plugin": "cf",
      "version": "0.6.0",
      "model": "STEREO",
      "params": [
        {
          "paramId": 0,
          "value": 0.0
        },
        {
          "paramId": 1,
          "value": 0.0150000006
        },
        {
          "paramId": 2,
          "value": 0.0
        },
        {
          "paramId": 3,
          "value": 0.0
        }
      ],
      "data": {
        "solostate": 0,
        "onstate": 1
      },
      "pos": [
        74,
        2
      ]
    },
    {
      "plugin": "Bogaudio",
      "version": "0.6.7",
      "model": "Bogaudio-VCO",
      "params": [
        {
          "paramId": 0,
          "value": 0.0
        },
        {
          "paramId": 1,
          "value": 0.0
        },
        {
          "paramId": 2,
          "value": 0.0
        },
        {
          "paramId": 3,
          "value": 0.0
        },
        {
          "paramId": 4,
          "value": 0.0449999943
        },
        {
          "paramId": 5,
          "value": 1.0
        }
      ],
      "pos": [
        64,
        2
      ]
    }
  ],
  "wires": [
    {
      "color": "#c9b70e",
      "outputModuleId": 2,
      "outputId": 3,
      "inputModuleId": 0,
      "inputId": 1
    },
    {
      "color": "#c91847",
      "outputModuleId": 7,
      "outputId": 4,
      "inputModuleId": 3,
      "inputId": 1
    },
    {
      "color": "#0986ad",
      "outputModuleId": 5,
      "outputId": 2,
      "inputModuleId": 5,
      "inputId": 2
    },
    {
      "color": "#0986ad",
      "outputModuleId": 5,
      "outputId": 0,
      "inputModuleId": 6,
      "inputId": 0
    },
    {
      "color": "#c9b70e",
      "outputModuleId": 5,
      "outputId": 1,
      "inputModuleId": 8,
      "inputId": 0
    },
    {
      "color": "#0986ad",
      "outputModuleId": 1,
      "outputId": 1,
      "inputModuleId": 5,
      "inputId": 1
    },
    {
      "color": "#c91847",
      "outputModuleId": 1,
      "outputId": 0,
      "inputModuleId": 5,
      "inputId": 0
    },
    {
      "color": "#0986ad",
      "outputModuleId": 6,
      "outputId": 3,
      "inputModuleId": 7,
      "inputId": 8
    },
    {
      "color": "#c9b70e",
      "outputModuleId": 8,
      "outputId": 3,
      "inputModuleId": 7,
      "inputId": 9
    },
    {
      "color": "#0c8e15",
      "outputModuleId": 6,
      "outputId": 1,
      "inputModuleId": 8,
      "inputId": 3
    },
    {
      "color": "#c91847",
      "outputModuleId": 7,
      "outputId": 3,
      "inputModuleId": 3,
      "inputId": 0
    },
    {
      "color": "#0986ad",
      "outputModuleId": 2,
      "outputId": 2,
      "inputModuleId": 0,
      "inputId": 0
    },
    {
      "color": "#c91847",
      "outputModuleId": 3,
      "outputId": 0,
      "inputModuleId": 2,
      "inputId": 2
    },
    {
      "color": "#c91847",
      "outputModuleId": 3,
      "outputId": 1,
      "inputModuleId": 2,
      "inputId": 3
    },
    {
      "color": "#0c8e15",
      "outputModuleId": 8,
      "outputId": 1,
      "inputModuleId": 6,
      "inputId": 3
    }
  ]
}