{
  "version": "0.6.2b",
  "modules": [
    {
      "plugin": "Core",
      "version": "0.6.2b",
      "model": "AudioInterface",
      "params": [],
      "data": {
        "audio": {
          "driver": 8,
          "deviceName": "Line (4- Steinberg UR242)",
          "offset": 0,
          "maxChannels": 8,
          "sampleRate": 44100,
          "blockSize": 4096
        }
      },
      "pos": [
        208,
        0
      ]
    },
    {
      "plugin": "ImpromptuModular",
      "version": "0.6.10",
      "model": "Clocked",
      "params": [
        {
          "paramId": 0,
          "value": 169.0
        },
        {
          "paramId": 12,
          "value": 0.0
        },
        {
          "paramId": 13,
          "value": 0.0
        },
        {
          "paramId": 18,
          "value": 0.0
        },
        {
          "paramId": 4,
          "value": 0.0
        },
        {
          "paramId": 8,
          "value": 0.5
        },
        {
          "paramId": 1,
          "value": 2.0
        },
        {
          "paramId": 5,
          "value": 0.0
        },
        {
          "paramId": 9,
          "value": 0.5
        },
        {
          "paramId": 15,
          "value": 0.0
        },
        {
          "paramId": 2,
          "value": -17.0
        },
        {
          "paramId": 6,
          "value": 0.0
        },
        {
          "paramId": 10,
          "value": 0.5
        },
        {
          "paramId": 16,
          "value": 0.0
        },
        {
          "paramId": 3,
          "value": 0.0
        },
        {
          "paramId": 7,
          "value": 0.0
        },
        {
          "paramId": 11,
          "value": 0.5
        },
        {
          "paramId": 17,
          "value": 0.0
        }
      ],
      "data": {
        "running": true,
        "panelTheme": 1,
        "expansion": 0,
        "displayDelayNoteMode": true,
        "bpmDetectionMode": false,
        "emitResetOnStopRun": false,
        "ppqn": 4
      },
      "pos": [
        25,
        2
      ]
    },
    {
      "plugin": "cf",
      "version": "0.6.0",
      "model": "MASTER",
      "params": [
        {
          "paramId": 0,
          "value": 1.06999969
        },
        {
          "paramId": 1,
          "value": 0.0
        }
      ],
      "data": {
        "onstate": 1
      },
      "pos": [
        202,
        0
      ]
    },
    {
      "plugin": "cf",
      "version": "0.6.0",
      "model": "MASTER",
      "params": [
        {
          "paramId": 0,
          "value": 2.38999963
        },
        {
          "paramId": 1,
          "value": 0.0
        }
      ],
      "data": {
        "onstate": 1
      },
      "pos": [
        113,
        2
      ]
    },
    {
      "plugin": "VultModulesFree",
      "version": "0.6.11",
      "model": "Vessek",
      "params": [
        {
          "paramId": 0,
          "value": 0.0
        },
        {
          "paramId": 1,
          "value": -0.08699999
        },
        {
          "paramId": 2,
          "value": 1.0
        },
        {
          "paramId": 3,
          "value": 0.248999998
        },
        {
          "paramId": 4,
          "value": 0.0
        },
        {
          "paramId": 5,
          "value": 0.0
        },
        {
          "paramId": 6,
          "value": 0.0929999948
        },
        {
          "paramId": 7,
          "value": 0.477000028
        },
        {
          "paramId": 8,
          "value": 0.0
        },
        {
          "paramId": 9,
          "value": 0.0
        },
        {
          "paramId": 10,
          "value": 0.5
        },
        {
          "paramId": 11,
          "value": 0.0
        },
        {
          "paramId": 12,
          "value": 0.0
        },
        {
          "paramId": 13,
          "value": 0.0
        },
        {
          "paramId": 15,
          "value": 0.169499993
        },
        {
          "paramId": 16,
          "value": 0.0
        },
        {
          "paramId": 17,
          "value": 0.0
        },
        {
          "paramId": 18,
          "value": 0.0
        },
        {
          "paramId": 14,
          "value": 0.62349999
        },
        {
          "paramId": 21,
          "value": 0.0
        },
        {
          "paramId": 22,
          "value": 1.0
        },
        {
          "paramId": 23,
          "value": 0.0
        },
        {
          "paramId": 24,
          "value": 0.0
        },
        {
          "paramId": 25,
          "value": 0.0
        },
        {
          "paramId": 26,
          "value": 0.0
        },
        {
          "paramId": 27,
          "value": 0.0
        },
        {
          "paramId": 28,
          "value": 0.0
        },
        {
          "paramId": 29,
          "value": 0.0
        },
        {
          "paramId": 30,
          "value": 0.0
        },
        {
          "paramId": 31,
          "value": 0.0
        },
        {
          "paramId": 32,
          "value": 0.0
        },
        {
          "paramId": 33,
          "value": 0.0
        }
      ],
      "data": {
        "mod_a": 0,
        "mod_b": 8,
        "mod_c": 0,
        "mod_d": 8,
        "mod_e": 0,
        "mod_f": 0
      },
      "pos": [
        72,
        2
      ]
    },
    {
      "plugin": "StellareModular",
      "version": "0.6.0",
      "model": "TuringMachine",
      "params": [
        {
          "paramId": 0,
          "value": 0.330499977
        },
        {
          "paramId": 1,
          "value": 0.748999953
        },
        {
          "paramId": 2,
          "value": 0.284000009
        },
        {
          "paramId": 3,
          "value": 0.161000028
        },
        {
          "paramId": 4,
          "value": 0.851000071
        },
        {
          "paramId": 5,
          "value": 0.0
        },
        {
          "paramId": 12,
          "value": 0.0
        },
        {
          "paramId": 11,
          "value": 0.0
        },
        {
          "paramId": 6,
          "value": 3.0
        },
        {
          "paramId": 7,
          "value": 0.209000036
        },
        {
          "paramId": 9,
          "value": 0.0
        },
        {
          "paramId": 10,
          "value": 0.0
        }
      ],
      "data": {
        "pulses_mode": 0
      },
      "pos": [
        46,
        2
      ]
    },
    {
      "plugin": "ML_modules",
      "version": "0.6.2",
      "model": "Quantum",
      "params": [
        {
          "paramId": 0,
          "value": 0.0
        },
        {
          "paramId": 1,
          "value": 0.0
        },
        {
          "paramId": 2,
          "value": 0.0
        },
        {
          "paramId": 3,
          "value": 0.0
        },
        {
          "paramId": 4,
          "value": 0.0
        },
        {
          "paramId": 5,
          "value": 0.0
        },
        {
          "paramId": 6,
          "value": 0.0
        },
        {
          "paramId": 7,
          "value": 0.0
        },
        {
          "paramId": 8,
          "value": 0.0
        },
        {
          "paramId": 9,
          "value": 0.0
        },
        {
          "paramId": 10,
          "value": 0.0
        },
        {
          "paramId": 11,
          "value": 0.0
        }
      ],
      "data": {
        "scale": [
          1,
          0,
          0,
          1,
          0,
          1,
          0,
          1,
          0,
          0,
          1,
          0
        ],
        "mode": 2
      },
      "pos": [
        64,
        2
      ]
    },
    {
      "plugin": "cf",
      "version": "0.6.0",
      "model": "MONO",
      "params": [
        {
          "paramId": 0,
          "value": 0.0
        },
        {
          "paramId": 1,
          "value": 2.52499938
        },
        {
          "paramId": 2,
          "value": 0.0
        },
        {
          "paramId": 3,
          "value": 0.0
        }
      ],
      "data": {
        "solostate": 0,
        "onstate": 0
      },
      "pos": [
        107,
        2
      ]
    },
    {
      "plugin": "Fundamental",
      "version": "0.6.2",
      "model": "VCA-1",
      "params": [
        {
          "paramId": 0,
          "value": 1.0
        },
        {
          "paramId": 1,
          "value": 0.0
        }
      ],
      "pos": [
        92,
        2
      ]
    },
    {
      "plugin": "VultModulesFree",
      "version": "0.6.11",
      "model": "Vessek",
      "params": [
        {
          "paramId": 0,
          "value": 0.0
        },
        {
          "paramId": 1,
          "value": 0.0
        },
        {
          "paramId": 2,
          "value": 0.519999862
        },
        {
          "paramId": 3,
          "value": 0.466500014
        },
        {
          "paramId": 4,
          "value": 1.0
        },
        {
          "paramId": 5,
          "value": 0.0
        },
        {
          "paramId": 6,
          "value": 0.0
        },
        {
          "paramId": 7,
          "value": 1.0
        },
        {
          "paramId": 8,
          "value": 0.234000012
        },
        {
          "paramId": 9,
          "value": 0.0
        },
        {
          "paramId": 10,
          "value": 0.5
        },
        {
          "paramId": 11,
          "value": 0.0
        },
        {
          "paramId": 12,
          "value": 1.0
        },
        {
          "paramId": 13,
          "value": 0.0
        },
        {
          "paramId": 15,
          "value": 0.305999994
        },
        {
          "paramId": 16,
          "value": 0.0
        },
        {
          "paramId": 17,
          "value": 0.0
        },
        {
          "paramId": 18,
          "value": 0.0
        },
        {
          "paramId": 14,
          "value": 0.736000121
        },
        {
          "paramId": 21,
          "value": 0.0
        },
        {
          "paramId": 22,
          "value": 1.0
        },
        {
          "paramId": 23,
          "value": 0.0
        },
        {
          "paramId": 24,
          "value": 0.0
        },
        {
          "paramId": 25,
          "value": 0.0
        },
        {
          "paramId": 26,
          "value": 0.0
        },
        {
          "paramId": 27,
          "value": 0.0
        },
        {
          "paramId": 28,
          "value": 0.0
        },
        {
          "paramId": 29,
          "value": 0.0
        },
        {
          "paramId": 30,
          "value": 0.0
        },
        {
          "paramId": 31,
          "value": 0.0
        },
        {
          "paramId": 32,
          "value": 0.0
        },
        {
          "paramId": 33,
          "value": 0.0
        }
      ],
      "data": {
        "mod_a": 0,
        "mod_b": 11,
        "mod_c": 0,
        "mod_d": 0,
        "mod_e": 0,
        "mod_f": 0
      },
      "pos": [
        98,
        3
      ]
    },
    {
      "plugin": "Bogaudio",
      "version": "0.6.7",
      "model": "Bogaudio-DGate",
      "params": [
        {
          "paramId": 0,
          "value": 0.0
        },
        {
          "paramId": 1,
          "value": 0.319999993
        },
        {
          "paramId": 2,
          "value": 1.0
        },
        {
          "paramId": 3,
          "value": 0.0
        }
      ],
      "data": {
        "triggerOnLoad": true,
        "shouldTriggerOnLoad": true
      },
      "pos": [
        95,
        3
      ]
    },
    {
      "plugin": "Bogaudio",
      "version": "0.6.7",
      "model": "Bogaudio-LFO",
      "params": [
        {
          "paramId": 0,
          "value": -4.28200006
        },
        {
          "paramId": 1,
          "value": 0.0
        },
        {
          "paramId": 2,
          "value": 0.0
        },
        {
          "paramId": 3,
          "value": 0.0
        },
        {
          "paramId": 4,
          "value": 1.0
        },
        {
          "paramId": 5,
          "value": 1.0
        }
      ],
      "pos": [
        85,
        3
      ]
    },
    {
      "plugin": "VultModulesFree",
      "version": "0.6.11",
      "model": "Tangents",
      "params": [
        {
          "paramId": 0,
          "value": 0.291125029
        },
        {
          "paramId": 1,
          "value": 0.344999939
        },
        {
          "paramId": 2,
          "value": 0.645999789
        },
        {
          "paramId": 3,
          "value": 0.0
        },
        {
          "paramId": 4,
          "value": 0.600000024
        },
        {
          "paramId": 5,
          "value": 0.0
        }
      ],
      "pos": [
        121,
        3
      ]
    },
    {
      "plugin": "VultModulesFree",
      "version": "0.6.11",
      "model": "Trummor2",
      "params": [
        {
          "paramId": 0,
          "value": 0.0500000007
        },
        {
          "paramId": 1,
          "value": 0.317000061
        },
        {
          "paramId": 2,
          "value": 0.0
        },
        {
          "paramId": 5,
          "value": 0.0
        },
        {
          "paramId": 3,
          "value": 0.0
        },
        {
          "paramId": 4,
          "value": 0.0
        },
        {
          "paramId": 6,
          "value": 0.0
        },
        {
          "paramId": 7,
          "value": 0.200000003
        },
        {
          "paramId": 8,
          "value": 0.400000006
        },
        {
          "paramId": 9,
          "value": 0.0
        },
        {
          "paramId": 10,
          "value": 0.0
        },
        {
          "paramId": 11,
          "value": 0.699999988
        },
        {
          "paramId": 23,
          "value": 0.100000001
        },
        {
          "paramId": 12,
          "value": 0.899999976
        },
        {
          "paramId": 14,
          "value": 0.0
        },
        {
          "paramId": 13,
          "value": 0.0
        },
        {
          "paramId": 15,
          "value": 0.949999988
        },
        {
          "paramId": 16,
          "value": 1.0
        },
        {
          "paramId": 18,
          "value": 0.0
        },
        {
          "paramId": 19,
          "value": 0.0500000007
        },
        {
          "paramId": 20,
          "value": 0.0500000007
        },
        {
          "paramId": 17,
          "value": 0.0
        },
        {
          "paramId": 22,
          "value": 0.0
        },
        {
          "paramId": 21,
          "value": 0.0
        },
        {
          "paramId": 25,
          "value": 0.0
        },
        {
          "paramId": 26,
          "value": 0.0
        },
        {
          "paramId": 27,
          "value": 0.0
        },
        {
          "paramId": 28,
          "value": 0.0
        },
        {
          "paramId": 29,
          "value": 0.0
        },
        {
          "paramId": 30,
          "value": 0.0
        },
        {
          "paramId": 31,
          "value": 0.0
        },
        {
          "paramId": 32,
          "value": 0.0
        }
      ],
      "data": {
        "mod_a": 0,
        "mod_b": 0,
        "mod_c": 0,
        "mod_d": 0
      },
      "pos": [
        25,
        3
      ]
    },
    {
      "plugin": "cf",
      "version": "0.6.0",
      "model": "MONO",
      "params": [
        {
          "paramId": 0,
          "value": 0.0
        },
        {
          "paramId": 1,
          "value": 5.0
        },
        {
          "paramId": 2,
          "value": 0.0
        },
        {
          "paramId": 3,
          "value": 0.0
        }
      ],
      "data": {
        "solostate": 0,
        "onstate": 0
      },
      "pos": [
        125,
        2
      ]
    },
    {
      "plugin": "VultModulesFree",
      "version": "0.6.11",
      "model": "Vessek",
      "params": [
        {
          "paramId": 0,
          "value": 0.0
        },
        {
          "paramId": 1,
          "value": -0.08699999
        },
        {
          "paramId": 2,
          "value": 0.0
        },
        {
          "paramId": 3,
          "value": 0.248999998
        },
        {
          "paramId": 4,
          "value": 1.0
        },
        {
          "paramId": 5,
          "value": 0.0
        },
        {
          "paramId": 6,
          "value": 0.0929999948
        },
        {
          "paramId": 7,
          "value": 0.477000028
        },
        {
          "paramId": 8,
          "value": 0.271500021
        },
        {
          "paramId": 9,
          "value": 0.0
        },
        {
          "paramId": 10,
          "value": 0.5
        },
        {
          "paramId": 11,
          "value": 0.0
        },
        {
          "paramId": 12,
          "value": 0.308999985
        },
        {
          "paramId": 13,
          "value": 0.0
        },
        {
          "paramId": 15,
          "value": 0.0
        },
        {
          "paramId": 16,
          "value": 0.0
        },
        {
          "paramId": 17,
          "value": 0.712500036
        },
        {
          "paramId": 18,
          "value": 0.0
        },
        {
          "paramId": 14,
          "value": 0.0
        },
        {
          "paramId": 21,
          "value": 0.0
        },
        {
          "paramId": 22,
          "value": 0.0
        },
        {
          "paramId": 23,
          "value": 0.0
        },
        {
          "paramId": 24,
          "value": 0.0
        },
        {
          "paramId": 25,
          "value": 0.0
        },
        {
          "paramId": 26,
          "value": 0.0
        },
        {
          "paramId": 27,
          "value": 0.0
        },
        {
          "paramId": 28,
          "value": 0.0
        },
        {
          "paramId": 29,
          "value": 0.0
        },
        {
          "paramId": 30,
          "value": 0.0
        },
        {
          "paramId": 31,
          "value": 0.0
        },
        {
          "paramId": 32,
          "value": 0.0
        },
        {
          "paramId": 33,
          "value": 0.0
        }
      ],
      "data": {
        "mod_a": 0,
        "mod_b": 8,
        "mod_c": 0,
        "mod_d": 8,
        "mod_e": 0,
        "mod_f": 0
      },
      "pos": [
        65,
        3
      ]
    },
    {
      "plugin": "JW-Modules",
      "version": "0.6.2",
      "model": "GridSeq",
      "params": [
        {
          "paramId": 0,
          "value": 0.0
        },
        {
          "paramId": 2,
          "value": 0.0
        },
        {
          "paramId": 39,
          "value": 0.0
        },
        {
          "paramId": 40,
          "value": 0.0
        },
        {
          "paramId": 41,
          "value": 0.0
        },
        {
          "paramId": 42,
          "value": 0.0
        },
        {
          "paramId": 43,
          "value": 0.0
        },
        {
          "paramId": 44,
          "value": 0.0
        },
        {
          "paramId": 36,
          "value": 0.0
        },
        {
          "paramId": 37,
          "value": 11.0
        },
        {
          "paramId": 38,
          "value": 0.0
        },
        {
          "paramId": 35,
          "value": 0.0
        },
        {
          "paramId": 45,
          "value": 2.0
        },
        {
          "paramId": 3,
          "value": 5.36649656
        },
        {
          "paramId": 19,
          "value": 0.0
        },
        {
          "paramId": 4,
          "value": 3.15086889
        },
        {
          "paramId": 20,
          "value": 0.0
        },
        {
          "paramId": 5,
          "value": 7.69156075
        },
        {
          "paramId": 21,
          "value": 0.0
        },
        {
          "paramId": 6,
          "value": 6.24693823
        },
        {
          "paramId": 22,
          "value": 0.0
        },
        {
          "paramId": 7,
          "value": 0.923447609
        },
        {
          "paramId": 23,
          "value": 0.0
        },
        {
          "paramId": 8,
          "value": 5.038908
        },
        {
          "paramId": 24,
          "value": 0.0
        },
        {
          "paramId": 9,
          "value": 3.0591507
        },
        {
          "paramId": 25,
          "value": 0.0
        },
        {
          "paramId": 10,
          "value": 2.46325302
        },
        {
          "paramId": 26,
          "value": 0.0
        },
        {
          "paramId": 11,
          "value": 7.20247793
        },
        {
          "paramId": 27,
          "value": 0.0
        },
        {
          "paramId": 12,
          "value": 4.76325226
        },
        {
          "paramId": 28,
          "value": 0.0
        },
        {
          "paramId": 13,
          "value": 8.97189617
        },
        {
          "paramId": 29,
          "value": 0.0
        },
        {
          "paramId": 14,
          "value": 1.34272516
        },
        {
          "paramId": 30,
          "value": 0.0
        },
        {
          "paramId": 15,
          "value": 8.12767124
        },
        {
          "paramId": 31,
          "value": 0.0
        },
        {
          "paramId": 16,
          "value": 1.02567077
        },
        {
          "paramId": 32,
          "value": 0.0
        },
        {
          "paramId": 17,
          "value": 4.4890542
        },
        {
          "paramId": 33,
          "value": 0.0
        },
        {
          "paramId": 18,
          "value": 0.151728392
        },
        {
          "paramId": 34,
          "value": 0.0
        }
      ],
      "data": {
        "running": true,
        "ignoreGateOnPitchOut": false,
        "gates": [
          1,
          1,
          1,
          1,
          1,
          1,
          1,
          1,
          1,
          1,
          1,
          1,
          1,
          1,
          1,
          1
        ],
        "gateMode": 0
      },
      "pos": [
        45,
        3
      ]
    },
    {
      "plugin": "cf",
      "version": "0.6.0",
      "model": "MONO",
      "params": [
        {
          "paramId": 0,
          "value": 0.0
        },
        {
          "paramId": 1,
          "value": 1.41499996
        },
        {
          "paramId": 2,
          "value": 0.0
        },
        {
          "paramId": 3,
          "value": 0.0
        }
      ],
      "data": {
        "solostate": 0,
        "onstate": 0
      },
      "pos": [
        95,
        2
      ]
    },
    {
      "plugin": "SynthKit",
      "version": "0.6.2",
      "model": "1x8 Splitter",
      "params": [],
      "pos": [
        118,
        3
      ]
    },
    {
      "plugin": "NYSTHI",
      "version": "0.6.21",
      "model": "MVerb",
      "params": [
        {
          "paramId": 0,
          "value": 0.5
        },
        {
          "paramId": 1,
          "value": 0.0
        },
        {
          "paramId": 2,
          "value": 0.588499963
        },
        {
          "paramId": 3,
          "value": 0.769500077
        },
        {
          "paramId": 4,
          "value": 0.5
        },
        {
          "paramId": 5,
          "value": 0.680000007
        },
        {
          "paramId": 6,
          "value": 0.811499953
        },
        {
          "paramId": 7,
          "value": 0.800000012
        },
        {
          "paramId": 8,
          "value": 0.5
        },
        {
          "paramId": 9,
          "value": 0.0
        }
      ],
      "pos": [
        119,
        2
      ]
    },
    {
      "plugin": "cf",
      "version": "0.6.0",
      "model": "MONO",
      "params": [
        {
          "paramId": 0,
          "value": 0.0
        },
        {
          "paramId": 1,
          "value": 1.75999963
        },
        {
          "paramId": 2,
          "value": 0.0
        },
        {
          "paramId": 3,
          "value": 0.0
        }
      ],
      "data": {
        "solostate": 0,
        "onstate": 0
      },
      "pos": [
        101,
        2
      ]
    },
    {
      "plugin": "ModularFungi",
      "version": "0.6.1",
      "model": "Blank 1HP",
      "params": [],
      "pos": [
        45,
        2
      ]
    }
  ],
  "wires": [
    {
      "color": "#0986ad",
      "outputModuleId": 2,
      "outputId": 2,
      "inputModuleId": 0,
      "inputId": 0
    },
    {
      "color": "#c9b70e",
      "outputModuleId": 2,
      "outputId": 3,
      "inputModuleId": 0,
      "inputId": 1
    },
    {
      "color": "#0986ad",
      "outputModuleId": 19,
      "outputId": 0,
      "inputModuleId": 14,
      "inputId": 5
    },
    {
      "color": "#c9b70e",
      "outputModuleId": 19,
      "outputId": 1,
      "inputModuleId": 14,
      "inputId": 6
    },
    {
      "color": "#0986ad",
      "outputModuleId": 5,
      "outputId": 14,
      "inputModuleId": 6,
      "inputId": 0
    },
    {
      "color": "#c91847",
      "outputModuleId": 1,
      "outputId": 1,
      "inputModuleId": 5,
      "inputId": 0
    },
    {
      "color": "#0986ad",
      "outputModuleId": 7,
      "outputId": 1,
      "inputModuleId": 3,
      "inputId": 2
    },
    {
      "color": "#c9b70e",
      "outputModuleId": 7,
      "outputId": 2,
      "inputModuleId": 3,
      "inputId": 3
    },
    {
      "color": "#0986ad",
      "outputModuleId": 6,
      "outputId": 0,
      "inputModuleId": 4,
      "inputId": 0
    },
    {
      "color": "#0c8e15",
      "outputModuleId": 4,
      "outputId": 0,
      "inputModuleId": 8,
      "inputId": 1
    },
    {
      "color": "#0986ad",
      "outputModuleId": 8,
      "outputId": 0,
      "inputModuleId": 7,
      "inputId": 8
    },
    {
      "color": "#c9b70e",
      "outputModuleId": 4,
      "outputId": 2,
      "inputModuleId": 8,
      "inputId": 0
    },
    {
      "color": "#0986ad",
      "outputModuleId": 5,
      "outputId": 12,
      "inputModuleId": 4,
      "inputId": 4
    },
    {
      "color": "#c9b70e",
      "outputModuleId": 6,
      "outputId": 1,
      "inputModuleId": 4,
      "inputId": 1
    },
    {
      "color": "#c9b70e",
      "outputModuleId": 3,
      "outputId": 2,
      "inputModuleId": 19,
      "inputId": 0
    },
    {
      "color": "#c91847",
      "outputModuleId": 3,
      "outputId": 3,
      "inputModuleId": 19,
      "inputId": 1
    },
    {
      "color": "#0986ad",
      "outputModuleId": 10,
      "outputId": 0,
      "inputModuleId": 9,
      "inputId": 1
    },
    {
      "color": "#c91847",
      "outputModuleId": 5,
      "outputId": 7,
      "inputModuleId": 10,
      "inputId": 0
    },
    {
      "color": "#0c8e15",
      "outputModuleId": 18,
      "outputId": 1,
      "inputModuleId": 9,
      "inputId": 4
    },
    {
      "color": "#0986ad",
      "outputModuleId": 11,
      "outputId": 3,
      "inputModuleId": 9,
      "inputId": 2
    },
    {
      "color": "#c9b70e",
      "outputModuleId": 9,
      "outputId": 0,
      "inputModuleId": 12,
      "inputId": 0
    },
    {
      "color": "#c91847",
      "outputModuleId": 18,
      "outputId": 0,
      "inputModuleId": 12,
      "inputId": 3
    },
    {
      "color": "#c9b70e",
      "outputModuleId": 12,
      "outputId": 0,
      "inputModuleId": 20,
      "inputId": 8
    },
    {
      "color": "#c9b70e",
      "outputModuleId": 14,
      "outputId": 1,
      "inputModuleId": 2,
      "inputId": 2
    },
    {
      "color": "#c91847",
      "outputModuleId": 14,
      "outputId": 2,
      "inputModuleId": 2,
      "inputId": 3
    },
    {
      "color": "#0c8e15",
      "outputModuleId": 13,
      "outputId": 0,
      "inputModuleId": 14,
      "inputId": 8
    },
    {
      "color": "#c9b70e",
      "outputModuleId": 5,
      "outputId": 0,
      "inputModuleId": 13,
      "inputId": 0
    },
    {
      "color": "#c9b70e",
      "outputModuleId": 16,
      "outputId": 1,
      "inputModuleId": 15,
      "inputId": 0
    },
    {
      "color": "#0986ad",
      "outputModuleId": 15,
      "outputId": 0,
      "inputModuleId": 17,
      "inputId": 8
    },
    {
      "color": "#c9b70e",
      "outputModuleId": 1,
      "outputId": 2,
      "inputModuleId": 16,
      "inputId": 3
    },
    {
      "color": "#c91847",
      "outputModuleId": 9,
      "outputId": 2,
      "inputModuleId": 18,
      "inputId": 0
    },
    {
      "color": "#0986ad",
      "outputModuleId": 20,
      "outputId": 1,
      "inputModuleId": 7,
      "inputId": 5
    },
    {
      "color": "#c91847",
      "outputModuleId": 20,
      "outputId": 2,
      "inputModuleId": 7,
      "inputId": 6
    },
    {
      "color": "#0986ad",
      "outputModuleId": 17,
      "outputId": 1,
      "inputModuleId": 20,
      "inputId": 5
    },
    {
      "color": "#c9b70e",
      "outputModuleId": 17,
      "outputId": 2,
      "inputModuleId": 20,
      "inputId": 6
    }
  ]
}